<?xml version="1.0" encoding="utf-8" ?>
<svg xmlns="http://www.w3.org/2000/svg" xmlns:xlink="http://www.w3.org/1999/xlink" width="1024" height="1024">
	<path fill="#A35F16" transform="scale(2 2)" d="M246.178 58.7464C292.051 55.6497 344.343 73.6303 379.593 102.292C465.015 171.748 478.218 295.9 408.313 381.213C369.987 427.986 323.513 447.937 265.48 453.739C215.904 454.738 169.974 440.287 131.329 408.9C55.8568 347.604 37.2409 240.544 85.6479 156.942C115.124 106.034 166.071 71.5266 224.05 61.274C231.394 59.9753 238.771 59.4925 246.178 58.7464ZM250.689 83.0054C242.065 83.6053 233.511 84.3158 225.004 85.9418C83.667 112.96 33.3685 290.333 144.38 386.93C177.571 415.811 218.117 428.734 261.438 428.256C293.668 428.551 332.878 413.079 358.366 394.601C401.987 362.978 427.887 309.985 428.454 256.401C429.023 202.702 401.799 150.166 359.362 117.693C330.105 95.3061 287.646 81.2173 250.689 83.0054Z"/>
	<path fill="#A35F16" transform="scale(2 2)" d="M255.924 237.802C265.358 229.694 275.634 218.399 284.56 209.522C287.85 206.249 291.192 202.104 295.001 199.489C305.992 191.943 320.126 204.683 312.657 216.129C310.105 220.039 305.828 223.331 302.538 226.658C293.163 236.141 282.455 246.056 273.574 255.771C280.856 264.135 290.603 273.184 298.546 280.996C305.4 287.739 318.729 297.744 312.013 308.715C310.07 311.888 307.3 313.392 303.811 314.295C293.618 314.362 288.488 306.146 281.857 299.508C273.303 290.945 264.912 281.973 255.924 273.876C252.33 276.794 249.131 280.355 245.843 283.616L225.841 303.604C222.765 306.644 219.623 310.402 215.997 312.751C204.7 320.067 192.179 305.275 200.088 294.234C202.416 290.984 208.74 285.303 211.852 282.191L238.113 255.771C231.459 249.494 225.3 242.687 218.839 236.207L208.006 225.175C202.045 219.167 193.521 212.046 199.744 202.789C201.948 199.51 205.214 198.005 208.972 197.317C218.225 196.714 226.349 208.315 232.321 214.341L255.924 237.802Z"/>
</svg>
