<?xml version="1.0" encoding="utf-8" ?>
<svg xmlns="http://www.w3.org/2000/svg" xmlns:xlink="http://www.w3.org/1999/xlink" width="1024" height="1024">
	<path fill="#272525" transform="scale(2 2)" d="M81.8924 73.3292L419.822 73.3191C440.248 73.2548 437.535 74.2386 437.504 92.2248L437.569 428.8C437.547 434.778 435.595 437.365 429.438 437.265L91.0591 437.269C86.2107 437.275 75.3404 439.489 74.4775 432.625C73.8496 427.63 74.2461 422.176 74.2514 417.134L74.2518 104.198C74.2447 94.4357 69.9857 74.7633 81.8924 73.3292ZM262.856 87.3348L262.856 179.019L319.268 178.997C323.472 178.985 327.22 178.276 330.576 181.163C334.549 186.376 332.59 197.144 332.601 203.516L332.626 248.035L353.531 248.035L353.531 157.497L296.551 157.526C291.033 157.542 284.718 158.632 283.591 151.369C282.495 144.306 283.034 123.067 283.354 115.602C283.767 105.978 295.359 108.73 301.858 108.735L373.865 108.744C381.345 108.744 388.996 108.414 396.453 108.792C404.67 109.208 402.378 124.422 402.377 130.338L402.373 271.899C402.38 277.563 402.883 286.874 402.207 292.221C401.192 300.241 380.289 297.266 373.978 297.266L332.626 297.259L332.655 315.967C332.682 330.055 333.052 332.705 318.243 332.543L304.706 332.52C288.626 332.522 272.47 332.87 256.398 332.519C247.636 332.327 245.761 323.684 250.733 319.568C253.689 317.12 258.004 317.828 261.543 317.836L318.259 317.836L318.259 192.815C303.393 192.578 288.484 192.825 273.615 192.828C268.164 192.83 259.681 193.298 254.579 192.692C246.968 191.789 248.773 182.337 248.778 176.942L248.795 87.3348L95.695 87.3348L88.6663 87.3348L88.6593 231.592C88.6547 236.984 88.2238 242.689 88.6663 248.035L175.846 248.027C197.275 248.035 193.839 250.052 193.819 268.994L193.807 387.254L214.743 387.254L214.731 330.388C214.73 328.119 214.539 325.634 214.884 323.4C216.019 316.073 227.565 316.282 229.088 323.11C230.683 330.262 228.945 344.979 229.487 353.257L353.531 353.257L353.516 333.707C353.516 319.215 352.36 317.619 366.34 317.81L422.871 317.836L422.871 87.3348C405.069 87.0731 387.224 87.3342 369.416 87.3347L262.856 87.3348ZM88.6663 262.477L88.6663 422.805L172.682 422.799C186.686 422.801 200.743 423.066 214.743 422.805C214.731 415.842 214.542 408.83 214.743 401.873C206.315 401.355 192.472 401.399 183.94 401.873C177.507 397.026 179.631 390.269 179.636 383.07L179.65 262.477L119.079 262.472C108.962 262.47 98.7769 262.217 88.6663 262.477ZM367.639 332.519L367.671 351.231C367.706 370.416 364.299 367.305 348.061 367.297L229.487 367.279L229.487 422.805L284.375 422.805L422.871 422.805L422.871 332.519C406.289 331.921 384.184 331.691 367.639 332.519ZM297.517 122.744L297.543 136.204C297.548 138.518 297.705 140.95 297.517 143.251L353.542 143.237C370.772 143.239 367.707 146.706 367.65 161.348L367.644 231.347C367.644 239.385 367.847 247.48 367.599 255.513C367.318 264.584 359.341 262.514 353.003 262.488L332.626 262.477L332.626 282.761L353.531 282.761L388.26 282.761L388.26 122.744L297.517 122.744Z"/>
	<path fill="#272525" transform="scale(2 2)" d="M394.838 351.34C406.284 350.158 402.323 372.058 402.327 379.372C402.329 384.111 402.949 392.393 402.263 396.757C401.026 404.625 387.928 401.878 381.345 401.877L256.785 401.873C248.683 401.609 245.123 394.445 250.095 389.198C253.399 385.712 263.978 387.241 268.379 387.246L388.26 387.254L388.236 367.23C388.234 360.817 386.263 352.551 394.838 351.34Z"/>
	<path fill="#272525" transform="scale(2 2)" d="M115.236 282.761L138.449 282.742C145.063 282.724 157.961 280.284 158.382 290.041C158.617 295.482 158.364 301.024 158.367 306.477L158.373 375.242C158.384 382.528 161.136 398.828 153.306 401.873C142.945 400.772 120.877 403.936 113.247 400.725C107.259 398.205 109.35 383.23 109.352 377.585L109.356 311.55C109.355 303.161 106.196 285.63 115.236 282.761ZM123.656 297.259C123.323 316.198 123.657 335.199 123.656 354.145L123.643 375.78C123.634 379.565 123.397 383.488 123.656 387.254L144.06 387.254C144.313 383.716 144.095 380.07 144.075 376.518L144.06 297.259C137.261 297.271 130.454 297.348 123.656 297.259Z"/>
	<path fill="#272525" transform="scale(2 2)" d="M220 248.035C227.022 248.306 255.12 247.009 259.63 249.004C266.125 251.877 264.687 260.686 258.347 262.477C247.911 263.016 232.246 263.037 221.653 262.535C212.425 262.098 212.024 250.862 220 248.035Z"/>
	<path fill="#272525" transform="scale(2 2)" d="M113.928 108.747C118.302 108.319 123.062 108.732 127.483 108.737L201.548 108.746C208.563 108.745 215.714 108.41 222.71 108.706C231.573 109.082 228.787 123.042 228.768 129.449L228.774 177.897C228.775 183.776 230.632 192.424 222.122 192.852C214.032 193.259 205.716 192.793 197.604 192.772C181.889 192.734 179.599 196.392 179.631 178.196L179.65 157.497C172.592 157.761 165.444 157.508 158.377 157.497L158.39 177.049C158.418 182.783 160.316 192.027 152.354 193.272C143.565 194.646 144.453 182.913 144.461 178.046L144.49 163.643C144.5 156.731 141.336 143.607 150.836 143.241C158.839 142.933 180.604 142.265 188.071 143.362C195.709 144.483 193.833 152.787 193.819 158.318L193.807 179.019C200.764 178.802 207.781 179.008 214.743 179.019L214.742 141.517C214.74 135.288 214.471 128.959 214.743 122.744L123.656 122.744L123.656 213.752L137.375 213.752L277.125 213.757C295.056 213.754 297.636 209.767 297.51 231.004L297.522 276.55C297.531 282.97 300.251 296.811 291.144 297.284C286.533 297.523 281.751 297.259 277.125 297.258L229.893 297.278C226.709 297.277 223.229 297.55 220.083 297.086C215.452 296.404 206.368 282.756 227.835 282.755L283.396 282.761L283.396 228.298L127.646 228.303C119.457 228.323 109.882 231.405 109.38 220.159C109.157 215.182 109.35 210.12 109.357 205.134L109.363 134.77C109.36 126.719 106.39 112.418 113.928 108.747Z"/>
</svg>
