<?xml version="1.0" encoding="utf-8" ?>
<svg xmlns="http://www.w3.org/2000/svg" xmlns:xlink="http://www.w3.org/1999/xlink" width="1024" height="1024">
	<path fill="#78C4DC" d="M0 0L1024 0L1024 1024L0 1024L0 0Z"/>
	<path fill="#020204" d="M785.4 75.1979Q786.956 75.2355 788.507 75.3616C795.628 75.9793 802.818 79.1541 807.375 84.7835C810.911 89.1523 812.159 94.1725 811.649 99.709Q814.72 99.3621 817.806 99.1954C824.305 98.8925 830.766 100.969 835.518 105.492C839.418 109.205 841.904 114.394 841.99 119.811C842.077 125.209 839.705 130.511 835.981 134.362C826.962 143.69 803.886 141.023 791.625 140.982L765.004 140.872C759.197 140.836 752.752 141.32 747.064 140.108Q745.919 139.865 744.815 139.476Q743.711 139.087 742.667 138.558Q741.622 138.03 740.655 137.37Q739.688 136.711 738.814 135.932C734.489 132.107 732.127 126.626 732.013 120.883Q732 120.352 732.016 119.821Q732.031 119.29 732.073 118.76Q732.116 118.23 732.186 117.704Q732.256 117.177 732.354 116.655Q732.451 116.132 732.576 115.616Q732.7 115.099 732.852 114.59Q733.003 114.081 733.18 113.58Q733.358 113.079 733.561 112.588Q733.764 112.097 733.993 111.618Q734.221 111.138 734.475 110.671Q734.728 110.204 735.005 109.751Q735.282 109.297 735.582 108.859Q735.883 108.421 736.206 107.999Q736.528 107.577 736.873 107.172Q737.217 106.767 737.582 106.381Q737.947 105.995 738.331 105.628C744.859 99.3289 752.202 99.3518 760.652 99.662C761.503 94.0862 763.609 88.5358 767.348 84.2527Q767.77 83.7606 768.216 83.2901Q768.661 82.8196 769.13 82.3718Q769.598 81.9239 770.089 81.4999Q770.579 81.0759 771.089 80.6767Q771.6 80.2775 772.13 79.9042Q772.66 79.5308 773.207 79.1842Q773.755 78.8376 774.319 78.5186Q774.884 78.1997 775.463 77.9091Q776.042 77.6185 776.635 77.357Q777.228 77.0955 777.834 76.8637Q778.439 76.632 779.055 76.4306Q779.671 76.2291 780.296 76.0585Q780.922 75.8879 781.555 75.7486Q782.188 75.6092 782.827 75.5014Q783.466 75.3937 784.11 75.3177Q784.753 75.2418 785.4 75.1979Z"/>
	<path fill="#FDFDFA" d="M783.642 80.6495C785.006 80.5893 786.389 80.5125 787.754 80.5588C793.496 80.754 799.244 82.882 803.078 87.2877C805.887 90.5147 807.613 94.9583 807.102 99.2654C806.656 103.029 804.462 106.797 801.464 109.109C799.63 110.523 797.385 111.356 795.055 110.968C786.863 109.606 791.481 103.302 788.65 99.0694C787.535 98.586 787.738 98.4016 786.519 98.8827C785.067 100.603 784.451 103.424 784.634 105.651C784.853 108.313 787.149 111.854 789.206 113.484C791.356 115.19 794.143 115.691 796.822 115.387C803.584 114.619 807.795 109.572 811.83 104.684C812.466 104.553 813.095 104.43 813.737 104.334C819.751 103.435 825.423 103.714 830.419 107.572C833.79 110.176 836.344 113.963 836.729 118.28C837.13 122.775 835.337 126.572 832.505 129.932C829.27 133.08 826.017 135.124 821.443 135.488C809.262 136.458 796.37 135.595 784.105 135.565C773.265 135.539 758.179 136.593 747.967 134.945C745.37 134.526 743.535 133.624 741.589 131.864C738.594 129.156 737.161 125.396 737.046 121.403C736.919 116.951 738.269 111.733 741.57 108.575C747.395 103.003 757.47 104.32 764.913 104.507C765.5 99.1699 765.917 93.9235 769.026 89.3254C772.477 84.222 777.813 81.8593 783.642 80.6495Z"/>
	<path fill="#020204" d="M235.567 95.7449C243.53 96.6996 250.631 99.2347 256.683 104.631C263.053 110.31 265.277 116.766 265.707 125.029C267.936 124.637 270.16 124.254 272.427 124.17Q273.181 124.148 273.935 124.163Q274.689 124.178 275.441 124.231Q276.193 124.283 276.942 124.373Q277.69 124.463 278.434 124.59Q279.177 124.717 279.913 124.881Q280.649 125.045 281.376 125.245Q282.103 125.445 282.819 125.681Q283.535 125.917 284.239 126.188Q284.943 126.46 285.632 126.765Q286.321 127.071 286.994 127.411Q287.667 127.751 288.323 128.124Q288.978 128.497 289.614 128.901Q290.251 129.306 290.866 129.742Q291.481 130.178 292.074 130.645Q292.667 131.111 293.235 131.605Q293.804 132.1 294.348 132.623C299.44 137.555 302.599 144.018 302.641 151.18C302.684 158.47 300.028 165.5 294.818 170.65C284.186 181.158 269.475 179.464 255.783 179.402Q242.704 179.308 229.625 179.395C218.336 179.362 190.015 180.641 180.555 177.993Q179.009 177.548 177.53 176.915Q176.051 176.283 174.663 175.471Q173.274 174.659 171.996 173.681Q170.719 172.704 169.573 171.575Q169.072 171.097 168.595 170.594Q168.119 170.091 167.669 169.564Q167.219 169.038 166.796 168.489Q166.374 167.94 165.979 167.371Q165.585 166.801 165.22 166.212Q164.855 165.624 164.521 165.017Q164.186 164.41 163.883 163.787Q163.58 163.165 163.309 162.527Q163.038 161.89 162.8 161.239Q162.561 160.589 162.356 159.927Q162.151 159.266 161.98 158.594Q161.809 157.923 161.672 157.244Q161.536 156.565 161.434 155.88Q161.332 155.195 161.265 154.505Q161.198 153.816 161.166 153.124Q161.134 152.432 161.137 151.739Q161.142 151.059 161.18 150.379Q161.219 149.7 161.291 149.023Q161.363 148.347 161.469 147.675Q161.574 147.002 161.713 146.336Q161.852 145.67 162.023 145.012Q162.195 144.353 162.399 143.704Q162.603 143.055 162.839 142.417Q163.075 141.779 163.343 141.153Q163.61 140.527 163.908 139.916Q164.206 139.304 164.534 138.708Q164.862 138.112 165.219 137.533Q165.576 136.953 165.962 136.393Q166.347 135.832 166.76 135.291Q167.173 134.75 167.612 134.23Q168.051 133.711 168.515 133.213Q168.98 132.716 169.468 132.242C179.289 122.553 190.519 123.406 203.273 123.557C204.35 117.025 206.737 111.401 211.164 106.428C217.664 99.1253 226.065 96.3229 235.567 95.7449Z"/>
	<path fill="#FDFDFA" d="M232.179 101.135C239.462 101.09 246.067 102.621 251.885 107.282C256.61 111.067 259.839 115.898 260.426 122.037Q260.476 122.561 260.499 123.086Q260.522 123.612 260.518 124.138Q260.514 124.664 260.483 125.19Q260.452 125.715 260.394 126.238Q260.337 126.761 260.252 127.28Q260.168 127.8 260.057 128.314Q259.947 128.828 259.81 129.337Q259.673 129.845 259.51 130.345Q259.347 130.845 259.159 131.337Q258.971 131.828 258.758 132.309Q258.545 132.791 258.308 133.26Q258.071 133.73 257.81 134.187Q257.549 134.644 257.265 135.087Q256.981 135.53 256.675 135.957Q256.369 136.385 256.041 136.797Q255.713 137.209 255.365 137.603C253.254 140.021 250.121 142.496 246.761 142.586C244.502 142.646 243.206 141.783 241.601 140.287C240.545 139.304 239.802 138.699 238.492 138.111C237.2 138.192 237.244 138.141 236.35 139.069C236.109 139.971 235.802 140.49 236.074 141.424C236.638 143.357 238.396 144.418 240.144 145.195C244.434 147.101 248.442 147.316 252.779 145.517C259.511 142.724 262.588 136.284 265.31 130.021C267.208 129.557 269.12 129.121 271.072 128.967C277.909 128.429 285.124 130.75 290.198 135.384Q290.604 135.749 290.992 136.134Q291.38 136.519 291.748 136.923Q292.116 137.326 292.463 137.748Q292.811 138.17 293.137 138.608Q293.462 139.047 293.766 139.501Q294.07 139.955 294.35 140.424Q294.631 140.893 294.887 141.375Q295.144 141.857 295.376 142.352Q295.609 142.846 295.816 143.352Q296.023 143.857 296.205 144.373Q296.387 144.888 296.543 145.411Q296.699 145.935 296.828 146.466Q296.958 146.997 297.06 147.533Q297.163 148.07 297.239 148.611Q297.315 149.152 297.364 149.696Q297.412 150.24 297.434 150.786Q297.454 151.335 297.447 151.885Q297.439 152.435 297.405 152.984Q297.37 153.532 297.308 154.079Q297.246 154.625 297.157 155.168Q297.067 155.71 296.951 156.248Q296.835 156.785 296.692 157.316Q296.549 157.847 296.38 158.37Q296.211 158.893 296.016 159.407Q295.821 159.921 295.601 160.425Q295.38 160.929 295.135 161.421Q294.89 161.913 294.62 162.392Q294.351 162.872 294.058 163.337Q293.764 163.802 293.449 164.252Q293.133 164.702 292.795 165.136Q292.457 165.569 292.098 165.986Q291.738 166.402 291.359 166.8C286.496 171.871 279.54 174.27 272.625 174.303L216.056 174.199C206.371 174.166 195.937 174.884 186.356 173.649C183.026 173.22 179.447 172.237 176.559 170.511C171.858 167.702 167.96 162.214 166.794 156.928C165.5 151.068 166.479 144.142 169.883 139.135C181.023 122.756 198.092 131.432 212.351 128.083C213.547 127.802 214.247 127.686 214.908 126.592C214.831 126.424 214.784 126.239 214.676 126.089C213.104 123.902 210.36 123.577 207.921 123.381C208.978 119.232 210.46 115.459 212.96 111.971C217.8 105.221 224.236 102.373 232.179 101.135Z"/>
	<path fill="#020204" d="M233.663 125.456L235.495 125.47C236.615 126.088 237.247 126.682 238.078 127.651C238.174 128.905 238.208 128.966 237.536 130.017C236.216 130.659 234.896 130.837 233.465 131.074C232.401 131.952 232.325 132.981 232.045 134.261L231.921 134.848L231.239 135.589L229.977 135.486C229.64 135.193 229.344 134.976 229.113 134.567C228.317 133.154 228.448 130.836 229.043 129.361C229.94 127.138 231.572 126.377 233.663 125.456Z"/>
	<defs>
		<linearGradient id="gradient_0" gradientUnits="userSpaceOnUse" x1="566.28723" y1="73.857254" x2="499.76144" y2="975.65045">
			<stop offset="0" stop-color="black"/>
			<stop offset="1" stop-color="#0B0D25"/>
		</linearGradient>
	</defs>
	<path fill="url(#gradient_0)" d="M512.277 69.297C513.181 69.3627 514.085 69.4731 514.987 69.5651C517.09 71.152 522.375 100.765 523.322 105.307C534.118 106.265 544.083 110.622 551.621 118.465C555.632 122.638 559.542 127.787 561.132 133.427C563.394 141.45 561.827 151.353 561.726 159.616C561.618 168.547 561.68 177.474 561.465 186.404C572.417 186.279 583.673 189.204 592.031 196.564C598.443 202.21 601.429 209.189 601.95 217.587C603.327 218.372 604.717 219.162 606.009 220.085C611.114 223.731 613.173 228.252 614.219 234.257C625.735 233.37 637.655 233.809 649.22 233.796L702.875 233.659C752.912 233.64 803.03 233.11 853.058 233.904C858.82 253.179 862.938 272.908 867.593 292.47Q882.308 352.428 894.089 413.03L938.527 634.353L963.149 757.438L970.071 792.086C971.169 797.641 973.025 803.886 973.169 809.511C973.353 816.717 971.438 824.771 970.352 831.929Q966.881 854.871 963.077 877.76L956.098 922.477C954.832 930.099 953.911 938.11 951.611 945.494C936.024 945.89 920.318 945.516 904.719 945.518L811.895 945.508L510.875 945.487L71.1997 945.572Q67.4136 918.752 63.2086 891.995C61.2026 878.583 59.5078 865.123 57.4123 851.724C55.4799 839.368 50.8647 821.384 51.2984 809.273C51.5565 802.068 54.1829 794.546 55.8463 787.562C59.3478 772.86 63.0736 758.149 66.4079 743.417Q101.355 589.765 138.256 436.569Q152.976 372.04 169.248 307.884C174.693 285.677 179.248 262.856 186.083 241.044C186.858 238.571 187.685 235.877 189.656 234.1C203.091 232.769 217.298 233.631 230.82 233.628L307.543 233.759L371.163 233.631C384.285 233.612 397.492 233.236 410.579 234.332C411.241 232.359 411.943 230.371 412.773 228.462C415.298 222.65 420.078 218.338 425.942 216.096C427.947 211.015 429.889 206.063 433.174 201.653C441.198 190.879 453.541 187.541 466.167 185.601C466.075 177.977 466.474 170.279 466.525 162.644C466.635 145.901 466.092 131.472 478.09 118.24C484.942 110.682 493.444 106.841 503.586 106.408C504.4 101.159 506.073 95.9279 507.31 90.7541C509.017 83.6128 510.45 76.4099 512.277 69.297Z"/>
	<path fill="#EC222D" d="M480.497 266.571C481.368 266.969 482.23 267.386 483.01 267.948C485.222 269.543 485.227 271.949 485.567 274.426C484.262 274.293 483.074 274.168 481.821 273.741C480.331 271.754 480.614 269.008 480.497 266.571Z"/>
	<path fill="#F9F9A4" d="M270.364 376.062L271.622 377.019C272.032 378.171 272.587 379.203 273.163 380.276C273.883 380.035 273.724 376.808 275.068 375.337C274.686 382.985 273.859 390.642 273.059 398.258C272.105 390.889 270.925 383.469 270.364 376.062Z"/>
	<path fill="#FDFDFA" d="M542.749 496.324C543.904 500.025 543.353 505.219 543.386 509.133L535.044 509.069L534.649 508.348C537.504 504.392 540.264 500.533 542.749 496.324Z"/>
	<path fill="#FDFDFA" d="M515.042 452.205Q528.274 452.353 541.494 451.785C541.411 457.413 541.65 463.06 541.781 468.687C539.774 468.724 532.08 459.625 529.77 457.928C526.395 455.45 520.455 453.574 516.389 452.979C515.422 452.838 515.929 453.054 515.042 452.205Z"/>
	<path fill="#EC222D" d="M473.132 277.613C477.151 277 481.376 278.078 485.343 278.729L486.673 280.676C487.07 281.248 487.753 282.014 487.957 282.679C488.392 284.094 488.191 284.364 487.454 285.499C485.076 286.627 482.344 286.596 479.752 286.803C475.436 287.021 469.634 288.148 465.811 285.834C465.104 284.768 465.018 284.826 465.224 283.581C467.129 280.792 470.134 279.026 473.132 277.613Z"/>
	<path fill="#EC222D" d="M461.807 191.688C462.943 191.553 463.871 191.517 465.006 191.672C465.996 192.738 466.1 192.889 466.369 194.314C466.189 194.7 466.116 195.158 465.829 195.473C465.601 195.723 453.362 198.132 450.565 199.587C445.091 202.434 441.048 208.073 439.216 213.907C438.876 214.99 438.734 215.605 437.887 216.418C435.894 215.793 433.802 215.542 431.744 215.209C433.659 211.059 435.575 206.97 438.449 203.38C444.397 195.951 452.579 192.65 461.807 191.688Z"/>
	<path fill="#EC222D" d="M542.654 275.946C549.029 275.939 557.218 276.3 562.831 279.682C563.923 280.34 565.331 281.46 565.481 282.827C565.616 284.053 565.055 285.411 564.224 286.305C563.64 286.931 562.448 286.647 561.625 286.633C554.804 286.466 547.032 287.653 540.406 286.575C538.856 284.974 538.302 282.969 537.545 280.919C539.19 279.207 540.942 277.59 542.654 275.946Z"/>
	<defs>
		<linearGradient id="gradient_1" gradientUnits="userSpaceOnUse" x1="381.29251" y1="671.23029" x2="403.26227" y2="700.06085">
			<stop offset="0" stop-color="#BAF54F"/>
			<stop offset="1" stop-color="#F0FC6D"/>
		</linearGradient>
	</defs>
	<path fill="url(#gradient_1)" d="M385.916 665.154C389.089 665.138 392.298 665.383 395.47 665.522Q395.467 688.799 394.448 712.054L393.731 711.822C390.986 696.333 387.876 680.772 385.916 665.154Z"/>
	<path fill="#EC222D" d="M560.482 191.608C562.859 191.471 565.147 191.511 567.517 191.746Q568.404 191.825 569.286 191.948Q570.167 192.072 571.042 192.238Q571.916 192.405 572.782 192.614Q573.647 192.824 574.501 193.076Q575.354 193.329 576.195 193.623Q577.035 193.917 577.859 194.253Q578.684 194.588 579.491 194.964Q580.298 195.34 581.086 195.755Q581.873 196.171 582.639 196.625Q583.405 197.079 584.147 197.57Q584.89 198.061 585.607 198.588Q586.324 199.116 587.014 199.678Q587.705 200.24 588.366 200.836Q589.028 201.432 589.659 202.06Q590.29 202.687 590.89 203.346Q591.489 204.004 592.055 204.691C594.767 208.021 597.271 212.907 596.831 217.315C595.403 217.552 593.784 217.941 592.345 217.886C592.161 217.878 591.313 217.779 591.219 217.733C591.092 217.67 587.009 207.521 584.204 204.62C578.038 198.242 569.665 197.135 561.289 196.968C560.836 195.186 560.66 193.436 560.482 191.608Z"/>
	<path fill="#4AC455" d="M350.672 341.585C351.005 344.851 353.282 351.172 354.923 354.066C354.757 365.314 351.416 379.602 350.288 391.342C347.906 391.482 345.568 391.872 343.212 392.232C345.794 375.516 349.286 358.4 350.672 341.585Z"/>
	<path fill="#4AC455" d="M870.866 756.917L871.401 757.08C872.59 759.375 871.765 773.051 871.716 776.395Q856.544 776.115 841.375 776.496C840.4 776.472 839.835 776.724 839.112 776.02C840.717 774.285 866.463 759.603 870.866 756.917Z"/>
	<path fill="#FDFDFA" d="M430.791 220.585C432.748 220.379 434.39 220.672 435.982 221.872C438.431 223.718 439.79 227.021 440.222 229.974C440.538 232.134 440.447 234.838 439.009 236.621C438.291 237.511 438.313 237.522 437.13 237.672C435.147 236.184 434.823 233.024 433.096 231.098L432.132 231.088C428.571 234.661 428.763 241.171 426.146 245.542C425.738 245.272 425.337 244.992 424.948 244.694C422.593 242.892 422.673 239.493 422.282 236.767L421.209 236.714C419.404 237.82 418.69 240.301 417.264 241.913L416.477 241.94C415.668 241.216 415.284 240.785 415.091 239.672C414.502 236.279 417.476 230.457 419.36 227.674C422.447 223.112 425.622 221.602 430.791 220.585Z"/>
	<path fill="#FDFDFA" d="M593.47 222.602C593.704 222.573 593.939 222.543 594.174 222.517C599.383 221.941 602.19 222.865 606.227 226.175C607.72 229.635 610.698 237.245 610.231 240.948C610.086 242.095 609.838 242.185 608.984 242.857C607.373 242.926 605.906 242.893 604.418 243.601C603.632 244.917 603.229 245.545 601.867 246.355C600.578 246.416 600.325 246.505 599.232 245.86L598.967 244.408C598.682 241.527 598.593 238.43 597.374 235.763C596.689 234.266 595.967 233.275 594.354 232.714C591.271 232.947 589.872 235.579 587.882 237.574C587.079 238.379 586.495 239.213 585.315 239.2C585.251 239.026 585.17 238.857 585.122 238.678C584.297 235.535 585.446 231.036 586.936 228.23C588.455 225.37 590.329 223.527 593.47 222.602Z"/>
	<path fill="#78C4DC" d="M470.802 209.79C473.39 211.683 475.908 213.387 478.75 214.877C479.012 218.205 480.077 230.953 479.104 233.143L478.042 233.322C478.444 234.067 478.756 234.247 479.428 234.731C480.577 242.686 479.936 251.986 479.5 260.009C479.381 259.96 479.267 259.895 479.143 259.863C476.718 259.222 474.599 258.658 472.714 256.845C471.926 256.087 471.417 255.215 471.175 254.149C470.56 251.438 470.931 247.553 470.868 244.695C470.613 233.058 470.805 221.429 470.802 209.79Z"/>
	<path fill="#FDFDFA" d="M527.526 514.361L543.291 514.915L542.52 540.575C537.343 540.859 532.241 540.815 527.064 540.674Q526.865 527.51 527.526 514.361Z"/>
	<path fill="#4AC455" d="M624.327 358.918C626.703 360.549 650.319 379.125 650.374 379.198C650.902 379.895 650.768 379.541 650.644 380.491C647.97 382.629 644.476 384.028 641.402 385.537L624.432 394.429C624.447 382.635 623.925 370.686 624.327 358.918Z"/>
	<path fill="#4AC455" d="M774.539 416.846C783.574 423.654 793.167 429.814 802.437 436.308C799.534 438.228 796.399 439.817 793.34 441.474Q783.867 446.285 774.576 451.438C774.716 439.914 774.565 428.372 774.539 416.846Z"/>
	<path fill="#4AC455" d="M382.223 680.926C383.293 682.261 391.487 737.116 391.809 742.559L384.545 742.668L375.555 743.03Q379.97 712.094 382.223 680.926Z"/>
	<path fill="#4AC455" d="M597.86 635.938C599.164 641.359 598.344 653.792 598.379 659.986C584.633 659.609 570.821 659.964 557.068 660.067L556.75 659.726C557.511 658.035 593.259 638.597 597.86 635.938Z"/>
	<path fill="#C5E85A" d="M537.613 546.759C539.375 546.918 541.158 546.949 542.925 547.026C543.063 558.322 542.554 569.742 543.129 581.012L535.125 580.967L527.419 581.078C527.319 569.703 527.633 558.313 527.263 546.942L537.613 546.759Z"/>
	<path fill="#FDFDFA" d="M493.838 470.76L494.228 470.117C497.92 464.102 502.811 459.874 509.899 458.367C516.31 457.003 523.855 459.172 529.219 462.876C530.7 463.899 531.62 464.847 531.955 466.636C530.774 466.997 529.67 467.299 528.718 468.136C526.903 469.734 525.874 472.793 525.611 475.112C525.593 475.265 525.581 475.418 525.566 475.571C524.42 476.255 522.95 476.737 521.902 477.469C521.287 475.907 520.765 474.579 519.704 473.267L518.704 473.001C516.794 474.571 514.709 478.478 511.85 477.792C509.408 477.206 507.865 474.168 506.748 472.204C504.131 474.545 502.866 475.861 502.242 479.397C500.821 479.661 498.76 480.229 497.369 479.744C495.905 479.234 495.665 478.495 494.983 477.227L493.838 470.76Z"/>
	<path fill="#4AC455" d="M843.172 646.722C849.337 649.716 855.149 653.759 861.287 656.928C861.296 663.33 861.926 669.422 862.937 675.732L855.301 679.805C850.912 682.125 846.725 684.579 842.63 687.39C843.311 673.958 843.743 660.154 843.172 646.722Z"/>
	<path fill="#4AC455" d="M791.79 565.661C802.814 571.477 813.29 578.44 824.318 584.349C820.632 585.987 817.109 588.02 813.566 589.945C806.484 594.012 799.153 598.061 791.766 601.536Q792.22 583.599 791.79 565.661Z"/>
	<path fill="#78C4DC" d="M462.648 201.601C463.613 201.468 464.266 201.467 465.218 201.682C466.63 206.637 465.556 227.332 465.248 233.391C458.743 233.495 452.156 233.703 445.665 233.227C444.805 228.667 443.47 224.373 442.011 219.973C442.98 216.95 444.139 213.802 445.896 211.144C449.971 204.98 455.798 203.055 462.648 201.601Z"/>
	<path fill="#78C4DC" d="M561.317 202.349C566.49 202.328 571.585 202.95 576.182 205.517C580.26 207.794 584.343 211.89 585.536 216.525C586.918 221.895 583.231 224.737 580.821 229.054C580.282 230.564 579.9 232.148 579.471 233.695Q570.409 233.652 561.347 233.517L561.317 202.349Z"/>
	<path fill="#FDFDFA" d="M491.53 270.429C505.959 273.471 521.5 272.831 535.979 270.318C536.124 274.084 537.774 282.958 535.844 285.864C520.488 286.351 505.059 285.503 489.675 285.931Q490.728 278.195 491.53 270.429Z"/>
	<path fill="#EC222D" d="M514.861 751.667C505.814 752.865 495.992 752.179 487.556 748.5C483.28 746.634 477.964 743.583 476.362 738.953C475.615 736.794 475.831 734.559 476.941 732.565C480.433 726.292 489.827 723.15 496.357 721.481C496.559 727.737 497.985 731.997 502.691 736.406C507.983 741.364 513.572 743.865 514.861 751.667Z"/>
	<path fill="#1D3955" d="M543.427 745.484C545.122 748.185 544.015 772.394 544.003 777.456C534.847 777.035 525.805 776.951 516.65 777.441C516.6 777.394 516.542 777.353 516.5 777.298C515.107 775.51 515.924 760.741 515.972 757.679C525.511 755.743 536.329 752.453 543.427 745.484Z"/>
	<path fill="#856B21" d="M475.055 748.391C487.429 755.923 495.761 757.138 510.032 757.963L510.08 776.647Q492.511 776.581 474.948 777.034C475.364 767.525 474.919 757.917 475.055 748.391Z"/>
	<path fill="#4AC455" d="M331.807 442.122C333.081 449.224 333.073 456.971 333.642 464.189C334.291 472.413 335.744 481.428 335.396 489.63C335.191 494.434 326.89 546.591 325.799 548.176C324.373 548.499 323.143 548.431 321.704 548.339L316.783 548.238C322.529 519.329 326.289 489.577 329.86 460.319C330.599 454.261 331.012 448.173 331.807 442.122Z"/>
	<path fill="#9ACB3B" d="M712.8 523.352C713.841 524.593 744.301 540.617 749.347 543.898C736.609 550.915 723.618 557.479 710.912 564.534C710.875 552.461 710.253 534.676 711.823 523.214L712.8 523.352Z"/>
	<path fill="#FC9C60" d="M496.357 721.481C508.706 718.49 522.249 719.562 533.294 726.2C536.199 727.945 539.314 730.4 540.241 733.828C540.916 736.324 540.243 738.924 538.814 741.025C533.758 748.453 523.032 750.377 514.861 751.667C513.572 743.865 507.983 741.364 502.691 736.406C497.985 731.997 496.559 727.737 496.357 721.481Z"/>
	<path fill="#4AC455" d="M413.952 424.86L421.066 424.796C417.75 454.146 415.557 483.786 413.22 513.237C412.699 519.803 412.08 526.371 411.629 532.941C411.426 535.886 411.723 538.895 411.387 541.82C411.239 543.106 411.149 544.122 410.325 545.17L409.124 545.299L400.767 545.601C404.164 530.938 404.811 514.161 406.374 499.092C408.942 474.342 411.827 449.658 413.952 424.86Z"/>
	<path fill="#4AC455" d="M676.921 561.521C678.317 563.887 677.459 578.353 677.545 581.95C662.762 590.419 647.719 598.267 632.659 606.226C631.321 604.654 631.88 588.8 631.837 585.56C638.11 583.146 644.085 579.361 649.951 576.097Q663.28 568.52 676.921 561.521Z"/>
	<defs>
		<linearGradient id="gradient_2" gradientUnits="userSpaceOnUse" x1="522.77716" y1="244.03777" x2="557.92664" y2="235.28012">
			<stop offset="0" stop-color="#16517D"/>
			<stop offset="1" stop-color="#126792"/>
		</linearGradient>
	</defs>
	<path fill="url(#gradient_2)" d="M527.673 220.298C527.866 220.249 528.059 220.198 528.253 220.151C537.02 218.055 547.395 216.633 554.771 211.104C554.963 210.96 555.159 210.823 555.352 210.68C555.467 210.595 555.581 210.506 555.696 210.42C555.589 216.645 555.957 254.937 554.823 257.223C554.604 257.665 554.02 258.282 553.643 258.615C547.853 263.734 533.272 265.634 525.527 266.823C528.562 260.92 529.375 228.801 528.637 220.989L527.673 220.298Z"/>
	<path fill="#FDFDFA" d="M683.393 507.239C691.167 511.374 697.829 516.45 706.071 519.902C704.028 532.381 705.675 554.093 705.381 567.476C702.767 569.261 699.882 570.6 697.063 572.028C692.303 574.371 687.607 576.875 682.885 579.292C682.047 563.438 682.745 547.34 682.901 531.456C682.978 523.689 682.165 514.863 683.393 507.239Z"/>
	<path fill="#4AC455" d="M210.745 666.255C212.289 673.713 213.028 681.394 214.247 688.918C215.609 697.323 218.196 706.426 218.093 714.93C218.024 720.532 216.626 726.446 215.839 732.001C213.724 746.943 211.09 761.985 209.871 777.022L200.269 776.986L191.591 777.017C196.81 752.8 200.697 727.951 204.566 703.472C206.496 691.259 207.707 678.213 210.745 666.255Z"/>
	<path fill="#FDFDFA" d="M513.607 84.1965C515.514 93.1084 516.944 102.626 517.07 111.755C512.118 115.082 507.435 115.675 501.93 117.416C490.696 120.968 482.557 129.599 480.269 141.25C479.59 144.709 479.413 148.288 479.16 151.797C482.485 148.992 486.049 146.075 490.692 146.309C493.781 146.465 496.436 148.198 498.334 150.564C500.9 153.762 502.299 158.123 501.689 162.212C501.2 165.497 499.351 168.742 496.636 170.69C494.053 172.543 491.096 172.871 488.036 172.301C484.733 171.687 482.279 170.262 479.543 168.389C479.599 182.072 479.984 195.776 479.893 209.453C477.015 208.022 474.269 206.308 471.389 204.856C471.434 194.317 471.875 183.785 471.906 173.252C471.958 155.381 469.086 135.895 482.21 121.524C489.276 113.787 497.572 111.666 507.6 111.218C509.705 102.248 511.111 93.068 513.607 84.1965Z"/>
	<path fill="#020204" d="M487.955 152.497C489.047 152.473 490.179 152.426 491.265 152.552C493.122 152.767 494.991 154.19 496.006 155.706C497.054 157.272 497.381 159.114 496.947 160.952C496.271 163.816 494.491 165.2 492.097 166.671C490.961 166.945 489.634 167.25 488.465 167.108C486.945 166.922 485.439 165.934 484.587 164.672C483.304 162.773 483.201 160.287 483.707 158.111C484.335 155.409 485.701 153.994 487.955 152.497Z"/>
	<path fill="#4AC455" d="M548.707 504.61C552.248 505.738 556.378 509.801 559.421 512.101C568.015 518.595 590.727 536.682 599.529 540.294C593.925 543.626 587.932 546.469 582.137 549.467C570.898 555.371 559.368 561.021 548.451 567.498C548.646 552.488 548.051 537.488 548.195 522.476C548.252 516.557 548.098 510.499 548.707 504.61Z"/>
	<path fill="#C5E85A" d="M791.649 545.58C799.332 548.603 806.565 553.51 813.794 557.479Q831.89 567.644 850.643 576.538C852.609 583.161 853.429 590.357 854.385 597.188C856.86 614.862 857.889 632.765 860.548 650.372C854.48 647.713 848.964 643.971 843.007 641.069C843.263 624.133 842.789 607.206 843.045 590.267C842.11 589.177 841.094 588.188 839.911 587.368C834.977 583.944 828.831 581.33 823.568 578.359C815.274 573.676 799.415 563.324 791.537 560.442L791.649 545.58Z"/>
	<path fill="#C5E85A" d="M773.64 385.559C789.482 384.928 805.547 385.407 821.414 385.496C821.575 390.534 822.682 395.756 823.426 400.746Q825.085 411.88 826.416 423.057C823.796 424.653 821.015 426.052 818.316 427.515C814.419 429.697 810.703 432.096 806.703 434.105C796.272 426.397 785.379 418.804 774.304 412.059C773.688 403.215 774.766 394.443 773.64 385.559Z"/>
	<path fill="#C5E85A" d="M481.359 546.743C488.25 546.651 495.566 546.088 502.398 546.967Q502.593 563.974 502.425 580.982C489.904 580.324 477.179 580.845 464.637 580.934Q453.284 580.773 441.93 580.897C442.743 569.598 442.921 558.205 444.083 546.942C456.46 546.506 468.965 546.831 481.359 546.743Z"/>
	<path fill="#C5E85A" d="M597.125 586.398L597.889 586.958C598.73 592.203 598.387 597.935 598.402 603.247L598.442 629.256C594.816 631.78 590.608 633.781 586.737 635.923C575.693 642.035 564.203 647.713 553.441 654.29L553.452 647.625C553.505 629.528 553.051 611.372 553.615 593.288C556.902 596.903 560.43 600.735 564.373 603.63C575.631 598.842 586.403 592.283 597.125 586.398Z"/>
	<path fill="#28A7CD" d="M478.75 214.877C500.091 221.024 505.66 221.757 527.673 220.298L528.637 220.989C529.375 228.801 528.562 260.92 525.527 266.823C525.283 266.809 525.039 266.798 524.795 266.78C519.928 266.419 514.844 267.361 509.939 267.402C501.182 267.476 485.922 266.406 479.5 260.009C479.936 251.986 480.577 242.686 479.428 234.731C478.756 234.247 478.444 234.067 478.042 233.322L479.104 233.143C480.077 230.953 479.012 218.205 478.75 214.877Z"/>
	<path fill="#C5E85A" d="M454.587 452.248C462.743 453.126 512.736 451.416 514.408 452.473C514.111 452.738 513.973 452.901 513.553 453.045C512.315 453.467 510.635 453.422 509.323 453.662C507.04 454.08 504.182 455.434 502.175 456.565C499.722 457.947 497.52 460.686 494.986 461.661C492.721 462.531 489.613 462.123 487.185 462.557C484.546 463.03 482.216 464.359 480.72 466.617C479.635 468.254 478.53 471.013 478.88 472.975C479.953 473.813 480.108 473.855 481.467 473.985C483.458 472.968 484.152 470.755 485.762 469.319C486.636 468.539 486.899 468.615 488.008 468.63C489.843 470.742 489.121 475.729 489.072 478.435L480.832 486.891C479.823 487.95 478.206 489.382 477.637 490.735C477.008 492.231 477.057 493.47 477.595 494.959C479.928 501.415 491.177 507.751 497.097 510.556Q471.746 510.568 446.398 510.909C447.356 498.373 448.059 485.807 448.847 473.259C449.263 466.635 449.251 459.582 450.451 453.062C451.685 452.184 453.096 452.363 454.587 452.248Z"/>
	<path fill="#D37B25" d="M517.409 111.998C519.087 110.985 520.063 110.531 522.06 110.727L523.073 110.822C534.167 111.91 542.43 115.922 549.432 124.595C551.468 127.116 554.173 130.676 555.078 133.783C556.488 138.625 556.777 193.706 555.906 201.911C555.731 203.559 555.055 204.343 553.747 205.348C548.218 209.596 539.674 211.478 533.031 213.488C533.069 199.592 533.365 185.849 532.975 171.942C532.501 171.797 532.453 171.792 531.92 171.571C528.427 170.122 525.735 168.169 524.319 164.552C522.932 161.011 523.48 156.89 525.124 153.532C526.847 150.01 529.71 147.593 533.346 146.247Q533.686 144.192 533.718 142.11Q533.75 140.028 533.474 137.964C532.556 131.01 528.501 120.606 523.13 115.902C521.587 114.55 519.619 113.755 518.009 112.482C517.807 112.322 517.609 112.159 517.409 111.998Z"/>
	<path fill="#FDFDFA" d="M533.346 146.247C537.951 146.886 541.429 147.893 544.349 151.841C546.685 154.998 547.67 159.214 547.068 163.085C546.61 166.026 545.125 168.599 542.628 170.262C539.516 172.335 536.535 172.061 532.975 171.942C532.501 171.797 532.453 171.792 531.92 171.571C528.427 170.122 525.735 168.169 524.319 164.552C522.932 161.011 523.48 156.89 525.124 153.532C526.847 150.01 529.71 147.593 533.346 146.247Z"/>
	<path fill="#020204" d="M535.671 152.465C536.799 152.488 537.936 152.636 538.975 153.105C540.668 153.868 542.048 155.48 542.63 157.232C543.324 159.32 542.967 161.748 541.911 163.652C540.624 165.973 538.855 166.787 536.415 167.554C535.701 167.413 534.987 167.271 534.284 167.083C532.333 166.562 530.703 165.293 529.761 163.489C528.891 161.823 528.862 159.852 529.481 158.099C530.594 154.95 532.768 153.759 535.671 152.465Z"/>
	<path fill="#28A7CD" d="M506.748 472.204C507.865 474.168 509.408 477.206 511.85 477.792C514.709 478.478 516.794 474.571 518.704 473.001L519.704 473.267C520.765 474.579 521.287 475.907 521.902 477.469C522.95 476.737 524.42 476.255 525.566 475.571C527.05 477.604 528.334 479.251 530.922 479.761C533.819 480.331 536.794 478.971 539.366 477.799C539.846 486.892 539.278 494.669 532.981 501.931C529.66 505.761 525.27 508.135 521.57 511.507Q521.38 546.032 521.99 580.551L507.64 580.642C508.246 557.861 509.115 534.925 508.727 512.144C508.587 512.04 508.448 511.934 508.307 511.831C501.553 506.935 486.242 501.23 482.905 493.81C482.918 492.479 482.917 491.846 483.843 490.828C488.2 486.042 492.235 483.452 494.983 477.227C495.665 478.495 495.905 479.234 497.369 479.744C498.76 480.229 500.821 479.661 502.242 479.397C502.866 475.861 504.131 474.545 506.748 472.204Z"/>
	<path fill="#020204" d="M506.748 472.204C507.865 474.168 509.408 477.206 511.85 477.792C514.709 478.478 516.794 474.571 518.704 473.001L519.704 473.267C520.765 474.579 521.287 475.907 521.902 477.469C523.031 481.132 525.666 486.835 523.598 490.459C522.545 492.303 520.686 493.348 518.913 494.402C514.537 494.583 508.406 495.346 504.959 492.005C502.82 489.932 502.026 486.545 502.063 483.661Q502.106 481.527 502.242 479.397C502.866 475.861 504.131 474.545 506.748 472.204Z"/>
	<path fill="#4AC455" d="M262.706 361.868L263.264 362.549C264.228 368.204 264.555 374.028 265.329 379.731C266.863 391.028 269.644 403.519 269.145 414.87C268.783 423.091 266.429 431.695 264.832 439.771Q260.823 460.995 256.457 482.149C252.078 504.177 249.191 526.635 244.204 548.519L234.714 548.232C232.679 548.029 230.463 548.434 228.428 548.634C231.316 528.829 235.643 509.174 239.131 489.456Q249.844 425.464 262.706 361.868Z"/>
	<path fill="#C5E85A" d="M871.414 713.437C872.968 715.619 871.602 744.247 871.468 749.721C856.702 758.745 841.993 767.955 826.998 776.593C806.333 776.509 785.534 776.035 764.889 776.897L764.09 776.666C764.849 775.244 766.322 774.599 767.692 773.785C802.067 753.352 837.796 735.177 871.414 713.437Z"/>
	<path fill="#FDFDFA" d="M692.894 427.162C693.194 436.31 692.319 445.874 693.95 454.895C678.052 463.842 661.847 472.226 645.877 481.055C639.687 484.478 631.198 487.797 626.246 492.825C624.288 494.813 625.913 522.901 626.008 527.101C617.923 529.565 609.794 534.734 602.367 538.783C602.876 531.133 602.556 523.274 602.542 515.607L602.329 475.454C610.869 470.657 619.635 466.338 628.275 461.732C639.826 455.574 651.273 449.201 662.874 443.139C672.797 437.954 683.453 433.168 692.894 427.162Z"/>
	<path fill="#FDFDFA" d="M838.96 502.5C842.014 506.849 848.823 561.96 850.27 571.652L800.255 544.256C797.51 542.776 791.681 538.626 789.183 537.817L787.969 538.615C785.718 544.057 787.324 580.584 787.256 589.375L786.949 603.489C780.763 607.536 773.757 610.731 767.1 613.941C767.222 604.476 766.695 594.979 766.587 585.511Q766.529 564.176 766.797 542.844C790.581 528.899 815.428 516.919 838.96 502.5Z"/>
	<path fill="#C5E85A" d="M832.449 463.455L832.941 463.563C834.536 465.431 838.106 492.486 838.83 496.849Q816.495 509.791 793.746 521.991C781.113 528.86 768.084 536.185 754.46 540.941C748.877 537.604 743.219 534.383 737.592 531.121C732.045 527.668 726.514 524.441 720.54 521.776L796.352 482.039C808.277 475.802 820.124 468.837 832.449 463.455Z"/>
	<path fill="#FDFDFA" d="M760.317 543.97L761.153 544.118C761.35 548.988 761.647 568.598 760.746 571.677C760.29 573.236 759.484 574.541 758.114 575.457C755.857 576.965 753.087 577.794 750.728 579.177C741.586 584.535 732.303 589.558 723.043 594.711L632.227 644.401C631.962 633.943 632.041 623.441 632.047 612.979L760.317 543.97Z"/>
	<path fill="#FDFDFA" d="M548.288 574.597C564.155 565.43 580.363 557.166 596.552 548.612C606.296 543.464 615.892 537.558 625.961 533.092C626.25 546.368 626.003 559.644 626.031 572.92L626.381 644.229C619.782 647.453 610.141 650.312 604.829 655.266C604.707 655.379 604.583 655.489 604.461 655.601Q604.539 629.341 604.165 603.084C604.118 596.079 604.937 588.121 604.071 581.26C603.899 579.898 603.495 579.413 602.454 578.598C598.612 578.423 571.029 594.425 565.272 597.31C559.609 592.44 554.561 584.93 548.21 581.215L548.288 574.597Z"/>
	<path fill="#FCD130" d="M517.07 111.755L517.409 111.998C517.609 112.159 517.807 112.322 518.009 112.482C519.619 113.755 521.587 114.55 523.13 115.902C528.501 120.606 532.556 131.01 533.474 137.964Q533.75 140.028 533.718 142.11Q533.686 144.192 533.346 146.247C529.71 147.593 526.847 150.01 525.124 153.532C523.48 156.89 522.932 161.011 524.319 164.552C525.735 168.169 528.427 170.122 531.92 171.571C532.453 171.792 532.501 171.797 532.975 171.942C533.365 185.849 533.069 199.592 533.031 213.488C518.405 217.84 493.663 216.213 479.893 209.453C479.984 195.776 479.599 182.072 479.543 168.389C482.279 170.262 484.733 171.687 488.036 172.301C491.096 172.871 494.053 172.543 496.636 170.69C499.351 168.742 501.2 165.497 501.689 162.212C502.299 158.123 500.9 153.762 498.334 150.564C496.436 148.198 493.781 146.465 490.692 146.309C486.049 146.075 482.485 148.992 479.16 151.797C479.413 148.288 479.59 144.709 480.269 141.25C482.557 129.599 490.696 120.968 501.93 117.416C507.435 115.675 512.118 115.082 517.07 111.755Z"/>
	<path fill="#020204" d="M504.043 196.715C502.21 196.488 501.636 196.417 500.343 194.987C499.998 193.492 499.996 193.495 500.67 192.117C502.223 191.203 502.673 191.387 504.425 191.492L504.043 196.715Z"/>
	<path fill="#020204" d="M520.781 191.364C522.322 190.803 523.406 190.312 525.076 190.685C526.122 191.453 526.077 191.394 526.318 192.67C525.743 194.036 525.205 195.02 523.753 195.588C522.688 196.004 521.558 196.22 520.434 196.4C520.231 195.998 519.911 195.413 519.815 194.984C519.47 193.434 520.106 192.653 520.781 191.364Z"/>
	<path fill="#020204" d="M509.532 172.03C510.011 172.011 510.819 171.966 511.275 172.014C512.602 172.154 513.528 172.794 514.247 173.917C515.035 175.149 515.136 176.326 514.781 177.714C514.43 179.085 513.242 179.629 512.113 180.271C510.381 179.687 508.991 179.122 507.695 177.77C506.612 176.64 506.461 175.824 506.505 174.301C507.449 172.874 508.02 172.751 509.532 172.03Z"/>
	<path fill="#020204" d="M504.425 191.492C509.726 192.937 515.434 192.155 520.781 191.364C520.106 192.653 519.47 193.434 519.815 194.984C519.911 195.413 520.231 195.998 520.434 196.4Q512.253 197.325 504.043 196.715L504.425 191.492Z"/>
	<path fill="#C5E85A" d="M248.466 726.979C262.01 726.73 275.649 727.235 289.206 727.295C304.712 727.364 320.262 727.021 335.759 727.483C335.309 736.385 334.068 745.352 333.18 754.226C332.422 761.806 332.016 769.504 330.89 777.032Q286.455 776.77 242.023 777.361C244.647 760.666 246.242 743.738 248.466 726.979Z"/>
	<path fill="#4AC455" d="M836.06 661.93L836.375 662.032C837.447 663.964 836.515 686.07 836.472 690.024C831.403 694.542 823.857 697.802 817.887 701.105C803.563 709.028 789.066 716.633 774.781 724.629C745.916 740.784 717.883 758.416 688.744 774.064C687.276 771.59 688.113 747.277 688.362 742.914L762.102 702.72C786.835 689.385 811.894 676.273 836.06 661.93Z"/>
	<path fill="#C5E85A" d="M272.089 586.031C288.249 585.348 304.793 586.062 320.98 586.139C316.766 611.798 314.915 637.992 311.614 663.799C310.509 672.439 310.142 682.344 307.703 690.662C306.415 691.679 305.668 691.425 304.059 691.448C287.592 691.55 271.143 691.164 254.669 691.442C258.497 671.725 261.343 651.773 264.674 631.962C267.242 616.687 270.545 601.448 272.089 586.031Z"/>
	<path fill="#C5E85A" d="M626.381 644.229C626.386 646.385 626.186 648.528 627.085 650.532C627.862 651.216 628.169 651.725 629.299 651.54C633.909 650.789 648.807 641.105 653.799 638.401C673.326 627.822 693.131 617.718 712.551 606.943L744.272 589.371C749.837 586.251 755.318 582.792 761.006 579.916C760.99 592.183 761.838 604.713 761.206 616.943C754.797 621.286 747.696 624.728 740.852 628.329L714.467 642.362C697.75 651.371 680.842 659.962 664.065 668.848C644.271 679.33 624.587 690.019 604.486 699.912C604.432 685.209 603.83 670.277 604.461 655.601C604.583 655.489 604.707 655.379 604.829 655.266C610.141 650.312 619.782 647.453 626.381 644.229Z"/>
	<path fill="#C5E85A" d="M741.116 435.928L741.694 436.006C742.834 437.958 741.811 463.699 741.96 468.533C734.569 473.693 679.122 502.934 677.986 504.559C676.448 506.76 677.214 549.163 677.193 555.296Q654.502 567.82 631.621 579.995C631.421 571.207 631.752 562.386 631.738 553.593L631.236 495.65L693.899 461.188C709.566 452.563 725.045 443.798 741.116 435.928Z"/>
	<path fill="#FDFDFA" d="M215.829 259.15C278.289 260.125 340.806 259.541 403.274 259.862L448.326 260.123C453.462 260.105 462.357 259.078 467.007 259.795C469.297 260.148 472.75 262.964 474.972 264.054L475.456 264.288C475.394 267.126 475.463 269.979 475.471 272.818C472.978 273.745 470.595 274.922 468.191 276.056C464.512 278.421 462.451 281.67 460.666 285.532L291.252 285.743C269.362 285.63 247.247 286.337 225.396 285.537C221.695 276.971 219.176 267.875 215.829 259.15Z"/>
	<path fill="#FDFDFA" d="M560.115 259.111C568.682 260.184 577.863 259.614 586.497 259.644L628.512 259.923L748.648 260.094Q776.169 259.878 803.689 260.099C811.904 260.15 820.122 259.907 828.331 260.28C824.47 268.03 817.752 274.383 813.03 281.711L810.391 285.27L569.159 285.444C568.987 284.542 568.81 283.629 568.535 282.751C565.319 272.449 558.72 274.483 551.238 270.555Q550.727 268.921 550.244 267.278C552.344 263.967 557.084 263.515 559.813 259.56C559.915 259.411 560.014 259.261 560.115 259.111Z"/>
	<path fill="#C5E85A" d="M178.046 616.974Q205.133 617.301 232.22 617.084C230.886 633.628 227.493 650.457 225.038 666.888C223.616 676.402 223.149 687.018 220.671 696.271Q220.573 695.213 220.459 694.156C219.316 683.609 217.448 673.023 215.748 662.55C214.9 657.32 214.408 651.652 213.03 646.559C212.714 645.391 212.367 644.631 211.401 643.851C210.081 643.59 209.483 643.592 208.218 644.063C207.723 644.645 207.47 645.076 207.352 645.842L195.538 720.613Q190.692 749.026 185.248 777.331C172.191 777.152 159.085 776.97 146.035 777.444L169.181 662.562C172.21 647.445 174.226 631.894 178.046 616.974Z"/>
	<path fill="#FDFDFA" d="M400.674 665.07L532.781 665.661C554.6 665.735 576.622 664.796 598.421 665.817C598.46 673.718 598.704 681.685 598.376 689.578L426.699 688.831C425.401 688.827 424.177 688.949 423.17 689.826C421.369 697.172 421.967 714.065 421.694 722.499C421.131 739.955 419.9 757.57 419.845 775.023C419.838 777.023 419.632 780.159 420.489 782.002C420.752 782.569 421.04 782.869 421.419 783.328C421.005 784.144 420.079 785.722 419.256 786.131C417.613 786.946 393.565 786.795 391.67 785.996C391.247 784.516 391.503 784.102 391.925 782.657L393.237 781.928C394.144 780.472 394.004 779.603 394.077 777.913C395.721 768.027 394.943 758.464 395.952 748.661C396.887 747.8 397.318 747.491 397.659 746.222C399.459 739.521 399.328 724.846 399.635 717.306C400.343 699.905 400.012 682.464 400.674 665.07Z"/>
	<path fill="#C5E85A" d="M836.514 622.045C837.836 623.483 837.17 650.284 837.232 654.572C826.463 661.848 814.357 667.473 803.018 673.813Q765.498 695.118 727.43 715.428C718.457 720.136 688.449 734.855 682.497 740.203C681.942 752.286 682.392 764.564 682.458 776.664C669.031 776.456 655.512 776.402 642.096 776.996C640.919 769.822 641.876 759.776 641.884 752.319C641.894 743.842 641.264 735.133 641.829 726.694C654.224 717.936 671.941 710.945 685.606 703.441L794.118 643.706L816.446 631.693C822.913 628.202 829.448 624.165 836.514 622.045Z"/>
	<path fill="#C5E85A" d="M620.496 352.733C621.53 349.869 642.793 336.458 646.786 333.488C651.19 330.211 655.209 326.437 659.675 323.256L660.484 323.952C660.463 344.22 661.255 364.775 660.385 385.004L660.526 438.306C648.138 445.765 634.582 452.28 621.659 458.815C615.789 461.783 601.747 467.569 597.585 471.655C596.707 472.517 596.689 473.828 596.602 474.994C596.139 481.225 596.749 487.969 596.816 494.246Q597.045 513.974 597.07 533.704C591.113 528.442 552.235 499.497 547.396 498.304Q547.162 487.305 547.342 476.306C547.439 470.096 548.24 462.791 546.887 456.724C555.913 450.925 565.556 446.232 575.019 441.22C583.54 436.708 591.894 431.871 600.408 427.338C604.545 425.136 620.374 417.913 622.969 415.037C625.235 412.526 624.173 404.107 624.195 400.657C635.392 395.263 647.477 388.903 657.81 381.973C657.792 381.025 657.741 380.222 657.247 379.372C656.775 378.559 628.223 356.552 624.837 354.288C623.464 353.37 622.108 353.002 620.496 352.733Z"/>
	<path fill="#C5E85A" d="M234.937 318.743C249.03 319.041 263.598 319.487 277.659 318.408C278.11 324.272 276.493 371.091 275.068 375.337C273.724 376.808 273.883 380.035 273.163 380.276C272.587 379.203 272.032 378.171 271.622 377.019L270.364 376.062C268.501 370.218 267.759 346.124 263.849 343.018C263.056 343.071 262.692 342.955 262.033 343.483C260.461 344.74 259.825 346.817 259.322 348.692C257.826 354.261 257.149 360.354 256.097 366.047Q253.021 382.481 249.767 398.881Q238.431 455.814 228.832 513.065C226.839 524.85 224.529 536.556 222.701 548.373Q205.829 548.039 188.959 548.435C189.738 538.808 192.299 529.042 194.152 519.555L204.923 464.735Q215.82 406.7 228.507 349.029C230.786 338.987 232.205 328.658 234.937 318.743Z"/>
	<path fill="#C5E85A" d="M695.137 318.849C734.819 319.527 774.533 318.786 814.213 318.854C816.962 329.852 817.447 341.394 819.827 352.504C810.376 352.54 746.104 351.635 742.897 353.249C740.603 361.323 742.013 373.767 742.022 382.339C742.038 398.434 742.163 414.594 741.68 430.684C733.863 432.53 726.154 437.558 719.098 441.338L693.95 454.895C692.319 445.874 693.194 436.31 692.894 427.162C693.543 425.978 694.097 424.847 694.274 423.493C695.521 413.954 694.735 401.332 694.793 391.503C694.936 367.302 694.672 343.038 695.137 318.849Z"/>
	<path fill="#C5E85A" d="M275.22 548.457L301.424 396.426Q305.863 369.992 310.588 343.608C311.964 335.925 312.783 327.351 315.124 319.931C320.66 317.966 340.471 319.006 347.389 318.977C347.627 322.109 349.072 330.827 347.495 333.245L347.148 333.398C344.097 337.542 336.84 388.138 337.033 395.643C337.052 396.397 337.345 396.421 337.866 396.919C341.553 398.003 345.904 397.343 349.715 397.127C344.712 419.04 343.332 441.974 339.36 464.126C337.574 452.805 338.717 427.508 335.401 418.592C334.322 417.931 334.374 417.865 333.144 418.1C331.457 419.543 330.903 421.359 330.37 423.454C327.755 433.73 327.133 444.675 325.373 455.135C322.152 474.27 319.716 493.517 316.875 512.708C315.105 524.671 312.916 536.567 311.157 548.531C299.225 548.008 287.17 548.439 275.22 548.457Z"/>
	<path fill="#FDFDFA" d="M604.629 706.247L757.561 625.593L808.034 599.059C815 595.377 822.695 592.297 829.203 587.896C832.07 589.226 834.748 590.88 837.459 592.497Q837.564 603.817 837.519 615.138C830.67 617.885 824.286 621.755 817.769 625.204C806.95 630.929 796.104 636.529 785.341 642.372L689.909 694.461Q677.015 701.581 663.978 708.434C654.662 713.227 643.65 717.371 635.732 724.332C635.189 730.44 635.503 736.744 635.55 742.877L635.665 771.251C635.657 774.095 635.593 776.952 635.69 779.794C629.779 779.959 609.442 781.476 605.105 780.179L604.759 779.663C606.135 755.368 604.874 730.582 604.629 706.247Z"/>
	<path fill="#C5E85A" d="M428.487 694.578L598.879 695.294C598.253 722.456 598.994 749.808 599.095 776.989C582.886 776.423 566.678 776.802 550.465 777.029Q550.11 770.001 550.056 762.965C550.045 755.121 551.113 741.159 548.715 734.218C547.755 731.437 545.91 729.056 543.866 726.984C535.241 718.238 521.488 714.44 509.515 714.306C497.369 714.17 483.628 717.24 474.8 726.165C472.483 728.507 470.644 731.12 469.723 734.313C467.341 742.57 468.826 766.766 468.797 777.117C456.561 775.78 437.738 776.31 425.459 777.505C425.749 764.854 426.537 752.184 427.007 739.534C427.563 724.549 427.829 709.562 428.487 694.578Z"/>
	<path fill="#9ACB3B" d="M347.389 318.977L575.416 319.016L629.123 319.064C638.102 318.993 651.621 317.909 660.018 319.249C660.619 320.794 660.498 322.324 660.484 323.952L659.675 323.256C655.209 326.437 651.19 330.211 646.786 333.488C642.793 336.458 621.53 349.869 620.496 352.733C610.999 353.277 601.161 352.59 591.612 352.612L425.091 352.683L375.095 352.657C369.661 352.668 364.144 352.356 358.727 352.505C357.327 352.544 356.53 352.458 355.331 353.224L354.923 354.066C353.282 351.172 351.005 344.851 350.672 341.585C350.598 340.004 350.551 338.35 350.16 336.809C349.696 334.981 348.65 334.289 347.148 333.398L347.495 333.245C349.072 330.827 347.627 322.109 347.389 318.977Z"/>
	<path fill="#FDFDFA" d="M426.061 425.034L518.456 425.084C543.326 425.166 568.166 425.456 593.035 424.836C578.816 431.927 565.016 440.793 550.437 447.022C545.303 446.007 539.471 446.474 534.238 446.49L507.658 446.562L467.421 446.437C461.964 446.41 456.426 446.067 450.981 446.23C449.108 446.286 447.363 446.443 445.618 447.167C444.739 448.473 444.538 449.809 444.369 451.345C443.253 461.514 443.259 472.13 442.666 482.365C442.225 489.975 440.048 507.846 441.308 514.619C441.441 515.338 441.811 515.79 442.377 516.223C449.208 517.174 456.804 516.241 463.735 516.202C476.839 516.128 490.541 516.928 503.56 515.68C503.44 523.925 503.304 532.3 502.392 540.499Q480.908 540.682 459.425 540.53C453.258 540.515 446.138 539.775 440.114 540.752C439.176 541.775 438.726 542.591 438.408 543.956C437.29 548.743 435.835 577.118 436.019 582.098C436.069 583.462 436.125 584.572 436.76 585.81C437.094 586.041 437.38 586.365 437.762 586.501C438.087 586.616 542.835 586.413 548.384 585.84Q548.002 598.957 548.095 612.079Q497.385 612.359 446.675 612.057C430.628 612.058 412.288 611.118 396.532 612.709C395.08 612.265 393.645 611.548 392.673 610.337C388.978 605.734 391.148 591.111 391.575 585.131C397.349 585.299 403.701 584.611 409.323 585.923C410.66 586.233 410.879 586.378 412.134 585.885C413.174 584.456 413.394 582.801 413.58 581.082C416.496 554.197 417.652 526.996 419.809 500.032L424.059 448.523C424.705 440.691 425.699 432.886 426.061 425.034Z"/>
	<path fill="#D37B25" d="M639.924 917.427C645.894 914.459 674.174 911.206 682.73 909.878L744.772 899.853C759.183 897.578 773.637 895.647 788.006 893.088Q810.964 888.981 833.877 884.624C844.976 882.413 856.025 879.847 867.147 877.772C874.527 876.395 882.026 875.672 889.397 874.252C910.447 870.196 931.266 864.857 952.336 860.948C949.096 884.06 944.6 906.92 941.903 930.135Q818.192 931.016 694.48 930.516L601.497 930.583C586.548 930.568 571.268 931.209 556.355 930.353C558.673 929.1 629.255 917.616 635.822 917.455L639.924 917.427Z"/>
	<path fill="#020204" d="M922.264 909.707C922.526 909.709 922.789 909.693 923.051 909.713C924.356 909.814 925.448 910.198 926.123 911.406C926.792 912.604 926.567 913.166 926.118 914.308C923.609 916.431 917.184 915.511 913.874 915.787C913.437 915.838 912.939 915.911 912.504 915.884C911.307 915.81 910.432 915.698 909.795 914.589C909.087 913.356 909.201 912.912 909.627 911.687C912.606 909.307 918.529 909.935 922.264 909.707Z"/>
	<path fill="#020204" d="M639.924 917.427C643.731 917.709 647.878 916.989 651.592 917.894C652.755 918.86 652.889 919.037 653.385 920.463C652.915 921.731 652.569 922.303 651.338 922.962C648.236 924.621 640.056 924.41 636.735 923.231C635.42 922.765 635.103 922.243 634.489 921.047C634.528 919.35 634.896 918.797 635.822 917.455L639.924 917.427Z"/>
	<path fill="#020204" d="M824.771 910.177C829.642 910.653 847.021 909.521 849.787 911.193C850.412 912.471 850.526 913.087 850.39 914.503C849.414 915.868 848.789 915.947 847.265 916.571C842.276 915.872 826.199 917.097 823.178 914.084C822.551 913.459 822.761 913.597 822.717 912.581C823.334 911.557 823.833 910.922 824.771 910.177Z"/>
	<path fill="#020204" d="M753.494 911.134C758.603 910.946 777.072 909.864 780.821 911.605C782.12 912.208 782.185 912.399 782.632 913.661C782.352 915.209 781.819 915.653 780.747 916.715C775.518 916.707 754.854 917.802 751.592 915.157C750.972 914.654 751.101 914.403 751 913.683C751.769 912.51 752.385 911.939 753.494 911.134Z"/>
	<path fill="#020204" d="M876.204 886.011L900.296 885.963C905.371 885.929 910.743 885.542 915.774 886.059C917.382 886.224 918.164 886.683 919.192 887.962C919.388 889.655 919.122 889.997 918.427 891.5Q903.728 891.681 889.028 891.556C885.274 891.54 880.652 892.023 876.986 891.424C875.778 891.227 875.61 890.671 874.997 889.732C874.931 888.2 875.497 887.303 876.204 886.011Z"/>
	<path fill="#FDFDFA" d="M143.534 585.45C148.745 586.21 154.243 585.881 159.5 585.888L184.935 585.907Q225.897 585.774 266.858 586.052C262.434 605.289 260.056 625.285 256.709 644.746Q253.532 663.011 250.686 681.33C250.046 685.305 248.778 689.485 248.405 693.431C248.314 694.391 248.494 695.074 248.877 695.964C252.852 698.604 327.988 696.285 338.686 696.343C338.286 704.506 337.9 713.323 336.396 721.344C314.658 721.845 292.755 721.262 271 721.311C262.374 721.331 252.793 720.347 244.339 721.837L244.171 722.651L244.199 722.691L243.514 722.22C241.961 727.204 241.816 733.213 241.101 738.423Q238.329 757.782 236.09 777.209Q225.652 777.344 215.214 777.248C217.807 762.152 219.375 746.942 221.52 731.784C222.855 722.348 224.88 713.022 225.874 703.536C229.765 679.604 232.765 655.394 235.907 631.346C236.485 626.923 238.733 617.067 238.557 613.355C238.53 612.795 238.362 612.56 238.13 612.114C234.342 610.458 181.626 611.534 173.41 611.549C171.405 617.583 170.565 624.694 169.274 630.949Q164.349 654.361 160.09 677.903Q150.341 727.642 139.548 777.164C127.47 777.476 115.211 777.736 103.14 777.271C103.962 769.087 106.494 760.698 108.205 752.636L116.704 711.47L143.534 585.45Z"/>
	<path fill="#FDFDFA" d="M360.982 358.195L521.846 358.479C554.232 358.555 586.696 358.833 619.068 357.844L618.519 411.834C612.389 415.483 605.466 417.79 599.536 421.737C599.877 413.186 601.83 387.068 599.755 380.496C592.166 378.69 583.227 379.531 575.415 379.549L544.064 379.572L431.166 379.626C412.79 379.602 394.233 380.272 375.884 379.436L375.676 380.213C373.734 387.338 373.501 395.675 372.721 403.047Q370.906 420.78 368.717 438.47L353.062 572.557C350.848 585.053 349.998 598 348.716 610.623Q345.979 635.574 342.964 660.493C341.802 670.873 341.137 681.397 339.55 691.716Q326.635 691.485 313.718 691.434C315.281 680.335 328.106 584.054 326.684 581.48C325.376 580.529 324.328 580.305 322.745 580.217C308.59 579.424 293.895 580.265 279.666 580.233L182.776 580.46Q184.5 566.89 187.693 553.589C198.905 554.242 210.237 553.915 221.468 553.926L281.561 554.033L319.734 554.042C322.927 554.05 326.894 554.929 329.946 554.485C332.609 550.05 334.149 533.498 335.138 527.68Q344.387 473.576 352.046 419.225C354.928 399.052 356.638 378.079 360.982 358.195Z"/>
	<path fill="#C5E85A" d="M380.565 384.968L594.601 385.023Q594.679 402.264 594.423 419.503C556.414 419.845 518.363 419.096 480.351 419.04L438.296 419.107C428.443 419.194 418.589 419.576 408.738 419.233C407.603 425.296 407.097 431.597 406.377 437.725Q404.007 458.735 401.935 479.777L396.807 528.885C396.23 534.778 395.228 540.782 394.893 546.677C394.811 548.108 394.664 549.597 395.407 550.875C399.469 552.618 406.64 550.56 411.154 550.42C410.578 560.395 408.221 576.653 409.323 585.923C403.701 584.611 397.349 585.299 391.575 585.131C391.148 591.111 388.978 605.734 392.673 610.337C393.645 611.548 395.08 612.265 396.532 612.709C396.39 614.485 396.165 615.239 396.941 616.875C398.023 617.644 398.743 617.851 400.035 617.88C403.789 617.965 407.623 617.613 411.398 617.601L446.254 617.556L548.067 617.849Q547.412 638.891 547.562 659.942Q494.157 659.335 440.748 659.54L402.491 659.433C395.901 659.397 389.061 658.937 382.493 659.319C381.015 659.405 380.321 659.462 379.134 660.318C378.669 661.23 378.347 661.996 378.204 663.019C377.035 671.384 376.656 679.985 375.729 688.402C373.778 706.097 371.518 723.842 369.938 741.569C369.801 743.114 369.662 744.834 370.036 746.351C370.228 747.129 370.714 747.349 371.431 747.671C375.141 749.338 390.444 747.873 395.952 748.661C394.943 758.464 395.721 768.027 394.077 777.913C393 777.14 392.092 776.714 390.761 776.664C381.871 776.328 372.633 777.096 363.708 777.21C354.759 777.324 345.63 776.8 336.725 777.383C337.756 762.866 339.728 748.33 341.246 733.852L348.196 666.414L380.565 384.968Z"/>
	<path fill="#FDFDFA" d="M833.085 263.788C836.418 292.919 842.051 321.763 847.285 350.6L865.166 451.852L905.206 676.372C911.257 709.629 916.462 743.116 923.285 776.228Q900.132 775.92 876.978 776.036C877.122 766.962 879.018 710.628 877.043 706.125C875.611 705.573 874.691 705.581 873.26 706.21C869.583 707.827 866.154 710.761 862.714 712.883C854.649 717.859 846.425 722.686 838.208 727.409L776.119 763.123C768.384 767.645 759.807 771.482 752.642 776.851Q730.311 777.029 707.982 776.727C706.345 776.718 697.725 777.328 697.031 777.035C696.847 776.957 696.741 776.759 696.596 776.621C698.29 775.187 700.227 774.322 702.062 773.113C713.287 765.716 725.26 759.093 736.961 752.463C760.158 739.317 783.211 725.821 806.734 713.27C821.189 705.557 835.396 697.507 849.749 689.616C855.644 686.375 862.206 683.699 867.832 680.078C867.303 665.144 865.389 649.976 863.801 635.113Q861.095 608.167 857.394 581.339C853.422 554.074 848.48 526.895 844.275 499.664C843.172 492.518 839.887 461.108 836.537 456.826C832.827 456.783 823.09 462.092 819.408 463.892C803.368 471.734 787.94 480.999 772.025 489.098C758.468 495.997 744.821 502.674 731.403 509.851C725.961 512.761 720.011 515.508 714.925 518.976L712.8 523.352L711.823 523.214C712.041 520.683 712.19 519.055 710.461 517.061C706.424 512.407 694.895 508.667 688.97 503.958C697.466 500.45 705.573 495.348 713.615 490.902L766.609 461.09C783.018 452.069 799.868 443.884 816.25 434.76C821.621 431.768 827.171 429.114 832.238 425.611C832.5 424.86 826.398 385.717 826.173 380.012L789.162 380.098C782.946 380.092 775.996 379.402 769.868 380.364C767.112 384.032 768.39 445.083 769.162 453.146C762.068 458.208 753.946 461.409 746.488 465.856C748.604 458.522 747.53 433.395 747.547 424.536C747.592 402.405 748.098 380.145 747.429 358.027Q771.397 357.86 795.364 358.044C804.287 358.1 816.172 359.284 824.77 357.457C825.501 356.61 826.446 355.786 826.304 354.567C825.95 351.516 824.291 348.481 823.733 345.419C822.171 336.834 821.375 327.992 819.971 319.352C818.312 309.141 815.465 298.216 815.349 287.857C819.324 279.839 826.707 269.975 833.085 263.788Z"/>
	<path fill="#FDFDFA" d="M212.146 268.345C216.055 271.821 218.903 285.97 221.109 291.43C228.444 291.754 235.948 291.384 243.297 291.348L286.334 291.237L444.726 290.973L675.75 290.701Q743.039 291.087 810.326 290.657C811.334 298.158 812.901 305.567 813.75 313.097C783.717 314.381 753.39 313.349 723.326 313.336C714.963 313.333 697.528 312.322 690.357 313.599C688.465 316.854 689.33 410.572 689.31 423.324Q677.612 428.696 666.432 435.075C665.753 407.514 666.317 379.922 666.316 352.352C666.316 344.21 667.412 320.927 665.282 314.422C663.86 313.525 662.483 313.421 660.839 313.361C651.09 313.002 641.123 313.463 631.348 313.474L563.264 313.55L346.442 313.487C338.46 313.457 318.141 312.281 311.431 314.215C307.64 317.64 273.122 526.577 269.36 548.282C263.182 548.036 256.92 548.266 250.734 548.3C255.826 513.396 263.155 478.81 269.857 444.18C273.399 425.881 277.185 407.853 279.518 389.327C281.852 370.792 282.389 352.221 282.876 333.572C282.998 328.909 284.535 317.841 282.705 313.986C278.492 312.244 239.098 313.352 230.8 313.207C228.111 319.741 227.15 327.35 225.614 334.245Q219.96 359.646 215.074 385.206Q203.364 440.834 192.554 496.644Q187.222 525.801 181.261 554.836C179.594 563.371 178.365 572.021 176.364 580.484L145.115 580.293C146.702 573.573 147.841 566.728 149.357 559.982Q160.367 510.919 170.754 461.721C176.688 434.013 183.309 406.422 189.426 378.747Q197.826 342.299 205.187 305.627C207.719 293.51 211.515 280.691 212.146 268.345Z"/>
	<path fill="#FCD130" d="M561.301 238.6C567.217 238.929 573.109 239.006 579.033 239.036C580.026 241.302 580.729 242.734 583.099 243.697C585.279 244.583 587.454 244.15 589.5 243.111C591.28 242.208 592.588 240.643 593.91 239.191C594.011 241.787 593.59 248.174 595.755 249.967C597.932 251.77 601.779 251.568 604.369 251.099C607.946 250.45 611.926 248.863 614.089 245.774C615.146 244.266 615.011 242.765 614.962 241.01L614.927 239.292L776.406 239.448C800.528 239.48 824.733 238.987 848.845 239.452C850.447 249.748 851.97 260.02 853.985 270.249C855.723 279.074 857.879 287.814 859.652 296.633L874.817 371.31Q892.122 459.815 910.61 548.079C912.987 559.621 914.777 571.278 917.054 582.845Q937.954 694.932 960.925 806.614C949.199 807.31 937.3 807.054 925.548 807.147Q884.424 807.484 843.302 806.974L644.625 807.066L62.9161 807.416C67.6285 791.159 70.9481 774.206 74.5998 757.668L90.3519 686.8C102.67 631.186 116.218 575.799 129.047 520.298Q149.241 435.88 168.549 351.256C177.317 314.043 187.222 276.652 192.947 238.835C217.54 240.52 242.658 238.999 267.315 238.997L410.468 238.954C410.562 241.192 410.321 243.797 412.051 245.489C413.232 246.644 425.176 250.304 427.057 250.17C428.914 250.038 430.508 249.108 431.607 247.614C432.708 246.116 433.127 243.939 433.612 242.166C436.37 242.924 439.755 244.321 442.416 242.578C443.693 241.742 444.784 240.458 445.785 239.318C452.325 238.893 458.905 239.038 465.456 239.045L465.423 254.457Q370.301 254.82 275.18 253.97Q252.332 254.015 229.485 253.723C223.532 253.672 217.52 253.158 211.577 253.308C209.803 253.353 208.023 253.513 206.644 254.72C206.384 255.966 206.272 256.249 207.026 257.389C207.481 258.077 208.226 258.726 208.806 259.318L208.713 260.054C207.852 266.636 206.08 273.171 204.687 279.665L197.742 312.697Q184.119 377.746 169.087 442.485Q139.522 574.393 111.508 706.639C109.86 714.432 96.1445 777.974 96.4375 780.185C98.2676 782.169 100.287 782.417 102.875 782.523C109.96 782.811 117.173 782.456 124.275 782.441L169.941 782.396L319.382 782.374L367.655 782.464C375.548 782.462 384.105 781.724 391.925 782.657C391.503 784.102 391.247 784.516 391.67 785.996C393.565 786.795 417.613 786.946 419.256 786.131C420.079 785.722 421.005 784.144 421.419 783.328C431.257 781.151 451.448 782.095 462.244 782.05L558.815 781.884C572.355 781.879 586.008 782.346 599.53 782.033C600.94 782 602.519 782.037 603.812 781.416C604.554 781.059 604.523 780.388 604.759 779.663L605.105 780.179C609.442 781.476 629.779 779.959 635.69 779.794C635.593 776.952 635.657 774.095 635.665 771.251C635.684 774.392 635.261 778.131 636.77 780.963C637.842 781.816 639.132 781.764 640.444 781.834C655.359 782.633 670.71 781.893 685.676 781.923L793.343 781.757L882.122 781.713Q897.345 781.801 912.568 781.668C916.761 781.635 921.151 781.928 925.317 781.514C926.524 781.395 927.2 781.166 928.161 780.44C928.827 779.36 928.967 778.509 928.897 777.266C928.485 769.885 926.477 761.934 925.122 754.651L916.19 707.621L888.585 551.804L848.922 327.7C846.568 314.965 843.863 302.19 841.838 289.41C840.353 280.038 839.204 268.017 837.092 258.975C836.726 257.407 836.326 256.126 835.434 254.783C828.344 253.765 820.132 254.561 812.901 254.55L764.027 254.471L637.508 254.528C612.046 254.545 586.453 255.073 561.016 253.992Q561.205 246.297 561.301 238.6Z"/>
	<path fill="#FCD130" d="M64.2141 817.543C72.7393 816.447 83.55 817.364 92.3616 817.358L152.356 817.225L365.4 817.18L804.498 817.311L916.572 817.269C930.569 817.337 944.88 816.705 958.833 817.483C956.757 831.966 954.874 846.541 952.336 860.948C931.266 864.857 910.447 870.196 889.397 874.252C882.026 875.672 874.527 876.395 867.147 877.772C856.025 879.847 844.976 882.413 833.877 884.624Q810.964 888.981 788.006 893.088C773.637 895.647 759.183 897.578 744.772 899.853L682.73 909.878C674.174 911.206 645.894 914.459 639.924 917.427L635.822 917.455C629.255 917.616 558.673 929.1 556.355 930.353Q478.18 931.383 400 930.862L211.473 931.037C168.422 930.892 125.267 930.289 82.2249 930.98C80.0979 911.174 76.3615 891.539 73.1635 871.889C70.2097 853.739 67.8891 835.582 64.2141 817.543Z"/>
	<path fill="#020204" d="M92.8192 860.858C94.1034 861.085 95.3327 861.33 96.4586 862.047C97.5021 862.712 97.7496 863.555 97.9776 864.682C97.5045 866.21 97.0012 866.611 95.8104 867.581C94.7875 867.541 93.1864 867.444 92.2831 866.858C91.0452 866.054 90.9503 865.659 90.5998 864.324C90.9111 862.698 91.7096 861.987 92.8192 860.858Z"/>
	<path fill="#020204" d="M286.993 831.664L287.566 831.622C289.298 831.484 291.056 831.235 292.53 832.381C293.604 833.216 293.69 833.392 293.872 834.659C293.26 836.107 292.639 836.438 291.367 837.253C289.321 837.465 287.387 837.674 285.622 836.383C284.598 835.634 284.581 835.257 284.462 834.103C285.221 832.835 285.777 832.419 286.993 831.664Z"/>
	<path fill="#020204" d="M164.345 821.49C165.93 821.46 167.582 821.388 169.156 821.61C170.766 821.838 171.427 822.42 172.328 823.718C172.459 825.201 172.329 825.845 171.667 827.178C169.942 827.502 167.887 827.953 166.137 827.574C164.883 827.302 164.448 826.766 163.753 825.759C163.466 824.091 163.804 823.072 164.345 821.49Z"/>
	<path fill="#020204" d="M783.146 874.676C784.788 874.676 785.62 875.024 786.786 876.175C786.976 877.352 787.046 878.36 786.245 879.376C785.161 880.749 784.014 880.754 782.425 881.127C781.659 881.091 780.743 881.104 780.005 880.902C778.686 880.54 778.199 879.895 777.5 878.787C777.511 877.478 777.583 876.984 778.508 875.927C779.553 874.732 781.679 874.797 783.146 874.676Z"/>
	<path fill="#020204" d="M904.328 858.129C905.395 858.042 906.551 857.888 907.619 857.954C908.79 858.026 910.306 858.85 910.947 859.891C911.647 861.028 911.478 861.34 911.085 862.492C910.052 863.25 909.386 863.379 908.124 863.539C906.769 863.635 905.252 863.86 903.901 863.768C901.977 863.636 900.599 862.86 899.353 861.438L899.942 859.849C901.446 858.874 902.577 858.482 904.328 858.129Z"/>
	<path fill="#020204" d="M475.04 890.191C478.553 890.182 482.913 889.657 486.079 891.405C486.556 892.303 486.878 892.699 486.359 893.729C485.637 895.162 484.924 895.296 483.523 895.808C480.182 895.915 475.664 896.676 472.772 894.722C472.191 893.369 472.26 893.237 472.564 891.781C473.463 890.755 473.742 890.653 475.04 890.191Z"/>
	<path fill="#020204" d="M515.262 865.449C518.488 865.398 523.12 864.851 526.182 865.842C527.521 866.275 527.826 866.7 528.453 867.913C528.298 869.586 527.782 870.269 526.771 871.515C523.719 870.955 520.535 871.681 517.437 871.239C515.813 871.007 515.17 870.527 514.229 869.224C514.068 867.54 514.444 866.837 515.262 865.449Z"/>
	<path fill="#020204" d="M286.464 884.484C289.717 884.464 295.927 883.65 298.798 884.973C300.12 885.582 300.16 885.879 300.56 887.161C300.213 888.648 299.79 889.271 298.854 890.419C295.543 890.428 289.182 891.248 286.252 889.88C285.027 889.308 284.964 889.006 284.537 887.826C284.728 886.306 285.494 885.58 286.464 884.484Z"/>
	<path fill="#020204" d="M614.5 876.705C616.09 876.516 618.184 876.08 619.711 876.759C620.991 877.329 621.256 877.972 621.849 879.135C621.545 880.379 621.474 880.741 620.485 881.635C618.729 883.223 616.017 882.635 613.834 882.499C612.375 882.572 610.611 882.82 609.175 882.536C607.98 882.299 606.879 881.831 606.193 880.779C605.775 880.138 606.047 879.877 606.224 879.197C608.711 876.593 611.121 876.882 614.5 876.705Z"/>
	<path fill="#020204" d="M382.3 833.603C386.038 833.435 395.089 832.133 397.858 834.456C398.482 834.981 398.353 835.463 398.454 836.213C397.813 837.54 397.699 837.663 396.444 838.435C393.85 838.758 391.182 838.865 388.568 838.971C385.909 839.079 383.461 839.253 381.421 837.382C381.239 835.694 381.633 835.134 382.3 833.603Z"/>
	<path fill="#020204" d="M379.337 882.19C383.12 882.545 389.965 881.229 393.055 883.561C393.785 884.112 393.598 884.349 393.685 885.179C393.041 886.272 392.334 886.867 391.384 887.68C387.213 888.097 380.763 888.93 377.004 886.81C376.425 885.88 376.173 885.611 376.55 884.472C376.991 883.144 378.19 882.736 379.337 882.19Z"/>
	<path fill="#020204" d="M334.507 851.491C338.226 851.462 344.701 850.528 348.136 851.747C349.448 852.213 349.549 852.464 350.12 853.625C349.926 855.215 349.452 855.76 348.48 856.961C344.307 857.085 338.711 858.039 334.721 856.929C333.453 856.576 333.184 856.22 332.566 855.099C332.718 853.391 333.419 852.703 334.507 851.491Z"/>
	<path fill="#020204" d="M634.654 833.488C638.82 834.1 645.92 832.112 649.455 834.454C650.187 834.939 650.101 835.354 650.312 836.143C649.917 837.664 649.387 838.275 648.373 839.415C644.427 839.497 638.281 840.324 634.593 838.925C633.395 838.471 633.103 837.998 632.673 836.852C632.958 835.252 633.58 834.611 634.654 833.488Z"/>
	<path fill="#020204" d="M392.46 912.118C397.946 912.611 404.154 911.241 409.444 912.434C410.761 912.731 411.179 913.13 411.874 914.234C411.508 915.826 411.203 916.038 410.102 917.174C409.547 917.283 408.993 917.408 408.431 917.479C404.892 917.923 393.169 918.662 390.675 916.373C390.158 915.898 390.276 915.534 390.21 914.888C390.81 913.572 391.391 913.036 392.46 912.118Z"/>
	<path fill="#020204" d="M850.322 835.561C855.77 835.254 862.562 834.732 867.92 835.614C869.546 835.881 870.325 836.322 871.27 837.647C871.241 839.298 870.967 839.534 870.08 840.866C864.843 841.048 856.128 842.159 851.262 840.77C849.965 840.4 849.663 839.978 849.02 838.841C849.064 837.316 849.488 836.771 850.322 835.561Z"/>
	<path fill="#020204" d="M580.671 905.268C582.118 905.209 584.23 904.906 585.624 905.307C587.132 905.741 587.593 906.548 588.359 907.79C588.408 908.906 588.432 908.869 587.729 909.735C583.608 911.703 577.884 910.93 573.375 910.847C571.614 910.86 569.413 911.078 567.702 910.698C566.281 910.383 565.835 909.627 565.056 908.495C565.039 907.944 564.872 907.464 565.252 907.01C567.449 904.39 577.313 905.261 580.671 905.268Z"/>
	<path fill="#020204" d="M751.851 830.266C756.142 830.21 764.181 828.916 767.727 831.231C768.254 832.234 768.582 832.784 768.19 833.971C767.754 835.292 767.053 835.353 765.88 835.754C760.609 835.908 754.249 836.763 749.112 835.796C747.619 835.515 746.796 835.077 745.939 833.837C745.95 832.604 746.095 832.121 746.783 831.097C748.356 830.076 750.047 830.276 751.851 830.266Z"/>
	<path fill="#020204" d="M909.948 835.157C914.693 835.034 926.7 833.684 930.792 835.436C932.023 835.963 932.109 836.223 932.589 837.372C932.443 838.799 932.138 839.4 931.385 840.567C925.662 840.426 915.774 841.648 910.701 840.199C909.443 839.84 909.05 839.471 908.447 838.352C908.547 836.794 909.002 836.317 909.948 835.157Z"/>
	<path fill="#020204" d="M655.461 857.688C660.177 857.335 671.763 856.441 675.836 858.365C676.958 858.894 677.265 859.311 677.641 860.455C677.263 862.001 676.781 862.466 675.679 863.531C670.69 863.523 658.364 864.713 654.321 862.339C653.373 861.782 653.344 861.621 653.109 860.62C653.757 859.172 654.263 858.647 655.461 857.688Z"/>
	<path fill="#020204" d="M286.681 852.015C291.941 853.146 297.999 851.756 303.393 852.063C305.83 852.202 307.317 852.379 309.017 854.218C309.467 855.696 309.191 856.576 308.79 858C305.332 858.965 288.146 859.106 285.273 857.258C284.155 856.539 284.106 856.362 283.915 855.145C284.645 853.591 285.277 852.984 286.681 852.015Z"/>
	<path fill="#020204" d="M458.327 846.406C463.679 846.624 479.495 845.687 483.072 846.662C484.127 846.949 484.228 847.602 484.659 848.496C484.623 850.011 484.401 850.65 483.692 851.931C477.7 852.821 467.203 852.74 461.1 852.255C459.379 852.118 458.921 851.932 457.766 850.655C457.362 848.976 457.778 847.966 458.327 846.406Z"/>
	<path fill="#020204" d="M442.801 867.328L444.216 867.14C445.497 867.726 445.597 867.843 446.356 869.035C446.444 870.606 446.403 870.81 445.652 872.191C442.54 874.364 429.506 873.303 424.875 873.367C423.437 873.454 422.654 873.503 421.295 872.912C420.554 872.106 420.161 871.605 419.998 870.521C419.82 869.341 419.957 869.524 420.592 868.634C425.583 866.312 436.978 867.385 442.801 867.328Z"/>
	<path fill="#020204" d="M492.324 907.91C499.344 909.066 506.732 907.572 513.823 908.089C515.891 908.24 516.943 908.401 518.328 909.985C518.563 911.469 518.163 912.221 517.538 913.51C513.415 914.144 494.902 914.729 491.71 913.095C490.408 912.428 490.41 912.191 490.078 910.873C490.539 909.305 491.107 908.9 492.324 907.91Z"/>
	<path fill="#020204" d="M147.429 867.66C151.759 867.845 167.615 866.749 170.063 869.189C170.961 870.084 170.859 870.583 170.718 871.702C169.8 872.812 168.896 873.085 167.59 873.543C161.085 873.473 154.43 873.967 147.945 873.556C145.807 873.42 144.033 873.307 142.573 871.644C142.3 870.387 142.199 870.343 142.783 869.218C144.345 868.135 145.566 867.927 147.429 867.66Z"/>
	<path fill="#020204" d="M120.987 906.098C126.079 906.118 142.397 904.604 146.129 907.31C146.804 907.799 146.689 908.116 146.843 908.869C146.271 910.419 145.634 911.006 144.394 911.996C139.206 911.923 123.625 913.272 119.707 910.818C118.71 910.194 118.696 909.94 118.422 908.872C119.212 907.621 119.798 906.978 120.987 906.098Z"/>
	<path fill="#020204" d="M228.619 839.197C234.053 839.236 248.247 837.993 252.588 839.442C253.91 839.884 254.174 840.412 254.685 841.634C254.564 843.124 254.213 843.705 253.412 844.907C248.709 844.954 229.887 846.08 227.08 843.59C226.479 843.056 226.614 842.641 226.53 841.901C227.103 840.726 227.659 840.079 228.619 839.197Z"/>
	<path fill="#020204" d="M553.42 848.684C559.854 848.788 573.283 847.15 578.679 849.735C579.426 850.603 579.813 850.961 579.511 852.217C579.223 853.417 578.344 853.714 577.383 854.279C570.283 854.41 559.063 855.747 552.495 853.818C551.475 852.763 551.356 852.685 551.122 851.25C551.717 849.848 552.207 849.502 553.42 848.684Z"/>
	<path fill="#020204" d="M206.633 883.531C214.246 884.154 222.466 882.52 229.896 883.738C231.552 884.009 232.33 884.403 233.313 885.746C233.223 887.493 232.914 887.805 231.972 889.218C228.344 889.876 209.079 890.39 206.469 889.047C205.197 888.392 205.126 888.124 204.692 886.856C204.915 885.275 205.588 884.635 206.633 883.531Z"/>
	<path fill="#020204" d="M735.252 867.269C735.592 867.283 735.938 867.248 736.273 867.31C737.552 867.549 737.88 868.25 738.549 869.231C738.585 870.713 738.534 870.786 737.696 872.016C733.706 874.211 717.436 873.231 711.899 873.403C711.495 873.348 710.871 873.281 710.5 873.139C709.205 872.641 709.122 872.057 708.632 870.87C708.723 870.146 708.616 869.538 709.165 868.997C711.892 866.308 730.585 867.542 735.252 867.269Z"/>
	<path fill="#020204" d="M816.885 853.738C819.343 853.717 821.804 853.541 824.262 853.462C826.757 853.383 829.282 853.301 831.21 855.119C831.656 856.494 831.628 856.647 831.248 858.048C828.395 860.729 821.829 859.545 818.125 859.477C813.895 859.452 809.395 860.022 805.203 859.522C803.753 859.349 803.329 859.108 802.414 857.999C802.238 856.591 802.288 856.305 802.81 854.982C805.655 852.742 813.255 853.76 816.885 853.738Z"/>
	<path fill="#020204" d="M310.653 908.063C316.012 908.109 333.361 906.872 337.26 908.734C338.573 909.36 338.573 909.568 338.987 910.871C338.679 912.352 338.289 912.904 337.344 914.02C330.157 914.038 319.988 915.367 313.168 914.062C311.514 913.746 310.746 913.252 309.796 911.888C309.589 910.212 309.901 909.489 310.653 908.063Z"/>
	<path fill="#020204" d="M103.449 839.735C109.129 839.784 122.859 838.214 127.563 840.173C128.822 840.697 129.164 841.144 129.656 842.371C129.353 843.26 129.319 843.784 128.591 844.436C126.646 846.176 123.319 845.575 120.875 845.51C114.326 845.531 107.632 845.825 101.098 845.457C98.9064 845.333 96.716 845.057 95.2233 843.354C95.3043 841.86 95.2961 841.632 96.1513 840.423C98.2073 839.371 100.473 839.949 102.71 839.791L103.449 839.735Z"/>
</svg>
