<?xml version="1.0" encoding="utf-8" ?>
<svg xmlns="http://www.w3.org/2000/svg" xmlns:xlink="http://www.w3.org/1999/xlink" width="1024" height="1024">
	<path fill="#FEFEFE" d="M0 0L1024 0L1024 1024L0 1024L0 0Z"/>
	<path d="M702.673 677.88C703.102 677.916 703.865 677.958 704.259 678.092C705.494 678.514 705.532 679.073 705.875 680.184C705.36 683.273 703.397 685.475 701.407 687.788C700.675 687.564 699.698 687.302 699.084 686.847C698.217 686.205 697.855 685.041 697.949 684.003C698.183 681.436 700.808 679.306 702.673 677.88Z"/>
	<path d="M727.198 637.41C731.815 637.251 738.405 638.572 742.848 639.888C744.384 640.343 745.32 640.793 746.095 642.204L745.552 643.341C742.938 645.537 733.007 644.511 729.408 644.697C727.752 646.857 726.347 649.176 724.909 651.484C722.955 654.417 720.986 658.185 717.952 660.095C716.976 660.71 717.034 660.759 715.861 660.468C715.595 659.725 715.407 659.07 715.45 658.269C715.814 651.56 722.212 641.75 727.198 637.41Z"/>
	<path d="M473.167 198.611C488.373 197.463 504.136 199.565 519.368 200.368C527.54 200.799 535.883 200.423 544.007 201.22C545.747 201.391 547.369 201.64 548.891 202.536C550.332 204.494 550.962 206.546 551.262 208.956C551.825 213.465 551.469 218.289 551.472 222.843C551.48 236.479 550.611 250.87 551.885 264.427L551.965 265.241C575.956 266.535 597.821 281.782 617.833 293.672C628.439 281.863 637.902 268.668 648.058 256.428C651.274 252.552 654.549 247.826 658.305 244.49C659.233 243.665 660.221 243.374 661.471 243.544C664.83 244.001 695.909 269.076 701.576 273.252C706.984 277.237 712.776 280.761 718.059 284.902C719.379 285.937 720.54 286.938 721.558 288.283C721.841 289.677 721.937 290.328 721.314 291.64C718.548 297.459 713.142 303.313 709.144 308.368C700.155 319.73 690.858 330.696 683.75 343.387C698.492 361.527 713.573 378.221 724.53 399.116Q745.929 393.474 767.152 387.202C774.901 384.893 782.76 381.702 790.723 380.329L790.518 380.55L791.925 380.155C792.065 380.3 792.215 380.435 792.344 380.589C793.406 381.865 794.14 383.461 794.748 384.998C797.38 391.654 817.54 452.334 817.259 454.573C817.103 455.81 814.48 457.028 813.489 457.495C808.235 459.963 802.087 461.361 796.589 463.348C786.372 467.039 776.323 471.107 766.188 475.009C762.173 476.554 756.247 478.092 752.923 480.776C752.289 481.288 752.013 481.693 751.759 482.471C750.087 487.6 753.471 502.324 753.663 508.798C754.008 520.46 752.424 531.524 751.15 543.054C759.336 546.228 811.4 564.566 813.67 567.499C813.848 569.486 813.628 571.261 813.161 573.193C810.798 582.98 807.325 592.694 804.56 602.396C801.258 613.981 798.518 625.939 794.936 637.403C794.461 638.923 793.979 640.282 793.027 641.57C786.915 642.173 779.443 639.439 773.443 638.108C765.976 636.451 758.435 635.019 751.002 633.224C741.371 630.898 731.853 628.142 722.104 626.313C716.996 636.473 711.342 646.539 704.937 655.944C699.194 664.377 692.749 672.466 687.484 681.201C690.654 686.62 694.759 691.695 698.422 696.8Q707.243 709.141 715.925 721.58C718.765 725.637 722.971 730.47 724.552 735.184C724.189 736.717 723.343 737.825 722.319 738.991C717.425 744.566 664.358 783.486 660.852 783.206C659.231 783.077 657.223 781.092 656.091 780.045C652.519 776.741 649.315 772.883 646.012 769.31C636.91 759.464 627.817 749.028 617.769 740.151C598.69 748.086 578.842 754.495 558.214 756.691Q555.645 778.037 553.654 799.444C552.959 806.424 552.723 813.93 551.265 820.777C550.913 822.427 550.582 824.15 549.317 825.356C546.78 827.773 543.251 827.16 540.055 827.011C529.142 826.851 475.462 826.182 470.128 823.781C468.683 821.743 468.125 819.679 467.732 817.225C466.669 810.606 467.029 803.252 466.77 796.525Q465.789 774.961 465.407 753.377C446.28 749.435 428.956 742.678 411.323 734.449C400.398 744.584 389.951 757.178 379.697 768.128C375.181 772.949 370.174 779.855 364.263 782.844C363.502 782.86 362.937 782.766 362.229 782.472C353.805 778.965 334.48 762.551 326.062 756.255C318.906 750.902 310.933 745.992 304.224 740.126C302.699 738.793 301.421 737.547 300.633 735.664C300.945 733.649 302.05 731.699 303.088 729.955C308.862 720.25 315.544 710.921 321.6 701.362C326.808 693.143 331.479 684.369 337.163 676.497C330.058 669.068 322.679 661.829 315.833 654.163C308.534 645.988 301.79 637.341 294.358 629.277C281.38 633.548 268.007 636.51 254.814 639.998C247.572 641.913 240.218 644.577 232.884 645.989C231.634 646.229 230.336 646.577 229.119 646.077C227.002 645.207 225.688 644.064 224.843 641.93C222.99 637.247 221.83 632.091 220.38 627.261Q215.226 610.44 210.462 593.505C208.175 585.607 203.806 574.106 202.732 566.332C202.578 565.221 202.856 564.048 203.369 563.061C204.232 561.402 206.175 560.489 207.78 559.711C215.059 556.184 223.194 553.719 230.828 551.007L270.378 536.958C269.86 519.765 271.246 502.533 273.539 485.495C260.974 479.533 248.054 474.582 235.133 469.464C227.733 466.532 211.204 460.986 205.588 456.657C205.43 456.031 205.292 455.458 205.266 454.81C205.178 452.709 205.559 450.461 206.056 448.424C209.308 435.083 214.22 421.903 218.374 408.806C221.269 399.674 223.513 390.037 226.978 381.123C227.902 378.747 229.01 376.612 230.749 374.723C234.368 373.859 287.468 389.7 296.099 392.401C306.327 374.523 319.647 360.16 334.131 345.713C329.529 339.905 325.602 333.302 321.35 327.205C316.403 320.111 297.711 295.508 295.606 288.654C295.842 287.456 296.477 286.689 297.259 285.786C302.844 279.335 325.512 264.463 333.968 258.509C340.887 253.637 347.842 248.117 355.103 243.807C356.828 242.783 359.158 241.47 361.213 241.416C364.584 241.328 400.23 283.523 404.804 288.166C424.728 280.674 444.43 273.774 464.869 267.779C467.978 251.467 468.658 234.32 469.4 217.752C469.573 213.894 469.365 210.017 469.689 206.166C469.977 202.75 470.523 200.844 473.167 198.611Z"/>
	<path fill="#FEFEFE" d="M480.571 209.94Q511.073 209.922 541.467 212.492C541.497 220.818 540.794 268.151 543.786 271.607C547.225 275.579 559.419 277.14 564.632 278.64C570.68 280.38 576.846 282.532 582.621 285.058C587.98 287.403 614.789 302.559 618.975 302.118C619.346 302.079 619.862 301.968 620.191 301.738C623.749 299.257 627.149 293.361 629.924 289.965C633.803 285.218 637.881 280.637 641.699 275.839C648.076 267.827 654.187 259.607 661.162 252.095C671.317 258.528 679.953 266.714 689.59 273.808C697.195 279.408 706.261 284.055 713.047 290.604C707.463 300.362 675.887 336.967 675.385 343.471C674.935 349.301 682.056 355.281 685.703 359.283C694.258 368.671 702.276 378.169 709.409 388.692C713.434 394.629 716.555 401.17 721.132 406.711C727.839 407.165 776.458 391.192 787.967 388.213C790.559 394.578 792.519 401.348 794.746 407.858Q802.206 429.109 808.867 450.624C795.349 456.306 781.406 461.119 767.69 466.306C761.782 468.541 755.414 470.581 749.779 473.44C747.937 474.374 745.694 475.66 744.576 477.455C742.773 480.347 744.584 490.28 744.92 493.862C745.648 501.611 746.518 509.42 746.33 517.214C746.154 524.466 742.507 539.437 744.152 545.396C744.528 546.758 745.003 547.537 746.24 548.259C751.834 551.519 759.771 553.231 765.988 555.411C779.258 560.066 793.496 565.288 805.797 572.081C798.3 591.749 794.511 613.709 788.093 633.917C772.824 631.653 757.534 627.451 742.596 623.553C736.42 621.942 730.141 619.936 723.872 618.787C722.585 618.551 720.865 618.195 719.594 618.722C717.891 619.429 716.464 621.838 715.472 623.341C711.865 628.811 708.883 634.807 705.594 640.484C699.34 651.275 692.181 662.344 683.969 671.742C682.093 673.889 679.185 675.123 676.909 676.815C675.849 677.603 674.949 678.285 674.623 679.636C674.243 681.206 674.457 682.987 675.145 684.439C677.117 688.595 680.585 692.679 683.253 696.484C691.623 708.418 701.2 720.245 708.555 732.792L708.939 733.454C701.405 740.569 692.179 746.503 683.845 752.673C676.756 757.923 669.858 763.76 662.379 768.427Q649.528 754.494 636.474 740.751C631.676 735.739 626.933 730.438 621.722 725.859C615.852 726.863 609.99 729.804 604.405 731.935C596.462 734.965 588.162 737.912 579.923 740.039C573.602 741.671 566.941 742.702 560.467 743.49C556.284 743.999 551.921 744.11 547.877 745.324C546.145 746.751 545.559 749.303 545.123 751.423C543.878 757.469 543.717 764.102 543.042 770.259L538.475 811.479C538.491 812.258 538.408 812.527 538.141 813.233C533.013 814.249 524.314 812.96 518.803 812.772Q499.876 812.083 480.937 811.947C480.401 801.837 479.78 747.71 477.662 744.14C477.082 743.164 475.604 742.514 474.602 742.11C467.469 739.233 456.882 738.614 448.871 735.803C441.261 733.132 433.652 730.175 426.3 726.857C420.963 724.449 415.157 720.756 409.53 719.371C407.169 719.968 405.503 721.238 403.705 722.849C398.737 727.297 394.333 732.949 389.811 737.887Q376.389 752.593 362.521 766.88C353.61 761.151 345.141 754.328 336.671 747.962C330.242 743.13 322.977 738.444 317.353 732.697Q319.17 730.239 320.865 727.696C327.271 718.191 333.137 708.255 339.294 698.581C343.644 691.747 348.767 684.838 352.402 677.628C353.113 676.217 353.629 675.389 353.205 673.797C352.177 669.946 339.136 658.979 335.6 655.442C332.303 652.144 328.925 648.869 325.849 645.365C321.237 640.11 303.277 617.367 299.769 615.361C298.589 614.686 297.531 614.922 296.263 615.156C288.257 616.631 280.13 619.486 272.265 621.65C259.883 625.057 247.437 628.144 235.086 631.682C229.593 611.11 223.61 590.784 217.656 570.345C228.153 566.183 277.722 550.412 282.301 545.952C285.042 540.151 283.344 522.992 283.76 515.776C284.211 507.973 288.869 484.688 285.967 478.178C283.741 473.187 227.752 451.889 219.772 448.774C222.308 441.71 224.335 434.394 226.597 427.234Q232.593 408.769 238.084 390.147C248.63 392.055 297.383 408.746 302.411 406.343C303.754 405.701 304.622 404.619 305.441 403.414C307.785 399.966 309.437 395.896 311.618 392.312C315.275 386.305 319.997 380.722 324.553 375.371C332.005 366.618 341.366 359.472 348.317 351.329C349.042 350.48 349.654 349.476 349.849 348.359C350.071 347.085 349.65 345.983 349.1 344.869C346.815 340.245 343.279 335.891 340.386 331.624Q333.588 321.399 326.569 311.324C321.703 304.46 316.465 297.728 312.182 290.481C327.666 279.112 343.699 268.53 359.024 256.91C369.203 267.16 378.387 278.459 388.044 289.203C392.106 293.721 396.555 299.843 401.693 303.044C403.128 303.275 404.178 303.033 405.558 302.591C409.647 301.285 413.531 299.007 417.496 297.341C425.112 294.142 432.931 291.297 440.737 288.598C451.86 284.752 464.175 282.446 474.904 277.809C480.053 265.336 479.136 226.024 480.571 209.94Z"/>
	<path d="M506.324 330.216C509.467 329.508 513.938 330.705 517.258 330.777C525.184 330.95 533.072 331.297 540.899 332.667C560.258 336.055 580.04 345.11 597.267 354.492C622.016 367.968 641.629 389.458 658.238 411.816C662.317 417.306 666.539 422.644 669.989 428.567C672.993 433.724 675.073 439.318 677.603 444.709C680.122 450.075 683.139 455.798 684.748 461.506C688.505 474.833 688.643 494.196 688.744 508.354C688.788 514.576 688.778 520.87 688.41 527.082C688.014 533.748 684.917 545.549 686.725 551.582C688.065 556.052 681.866 569.904 680.157 574.905C678.862 578.696 674.921 581.356 672.841 584.806C658.746 608.179 654.838 621.632 632.609 639.901C632.51 641.182 632.463 643.37 631.653 644.437C626.295 651.498 565.545 682.685 555.489 686.108C544.324 689.909 530.456 692.547 518.636 692.99C507.309 691.5 495.657 691.355 484.474 689.17C477.455 687.799 468.979 685.982 462.448 683.145C458.954 681.628 455.855 679.308 452.381 677.769C447.888 675.778 443.256 674.163 438.81 672.034C424.894 665.369 411.687 656.282 399.764 646.524C382.208 632.156 365.371 612.836 354.753 592.684C352.491 588.391 351.316 583.567 349.133 579.236C347.167 575.337 344.752 571.664 342.721 567.797C338.054 558.911 335.378 548.965 334.406 539.014C329.03 483.934 347.808 432.233 382.823 390.056C388.665 383.02 397.63 371.979 404.632 366.543C411.424 361.27 420.144 357.753 427.864 354.033C446.983 344.823 467.127 335.03 488.326 331.73C494.227 330.812 500.371 330.76 506.324 330.216Z"/>
	<path fill="#FEFEFE" d="M346.179 521.231L347.061 521.637C347.445 521.811 347.836 521.967 348.213 522.153C350.294 523.179 351.892 523.15 354.169 523.266Q356.403 523.362 358.593 523.812C359.118 523.918 360.438 524.226 360.758 524.69C361.981 526.463 361.841 531.946 362.04 534.28C362.607 540.958 364.294 547.156 366.091 553.591C367.197 557.553 368.926 561.148 370.507 564.928C372.105 568.746 373.484 572.769 375.347 576.463C377.106 579.95 379.614 583.067 381.809 586.289C384.255 589.878 386.365 593.74 388.99 597.2C392.044 601.224 395.869 604.872 399.262 608.624C396.586 611.153 394.15 613.967 391.665 616.683L386.265 622.748C371.425 603.398 362.998 592.208 353.279 569.385C349.562 560.656 346.296 551.495 344.818 542.089C343.929 536.426 343.929 530.451 343.637 524.724L346.179 521.231Z"/>
	<path fill="#FEFEFE" d="M410.695 617.822C411.059 617.857 411.452 617.781 411.788 617.926C413.636 618.723 433.275 638.555 438.284 642.251C444.432 646.788 454.722 651.523 461.93 654.251C473.349 658.573 492.061 660.372 504.46 661.048C504.461 665.784 505.018 670.503 505.028 675.201C505.032 677.041 504.738 679.182 503.218 680.429C500.728 682.473 495.91 681.46 492.877 681.192C483.628 680.309 474.12 678.433 465.363 675.252C445.42 668.009 411.408 647.959 396.886 632.611C400.866 627.805 405.673 621.504 410.695 617.822Z"/>
	<path fill="#FEFEFE" d="M499.022 341.83L499.26 342.001C500.935 346.731 499.928 359.189 499.89 364.791C492.488 367.116 484.537 367.248 476.998 369.074C461.237 372.892 447.653 380.852 434.203 389.536C429.88 392.328 425.896 394.298 422.111 397.902L415.903 399.461C413.131 397.439 410.458 395.243 407.742 393.144L399.893 387.476C400.021 387.324 400.147 387.171 400.278 387.022C417.365 367.622 458.572 348.48 483.926 343.26C488.834 342.249 494.026 342.143 499.022 341.83Z"/>
	<path fill="#FEFEFE" d="M385.693 399.194C392.784 401.597 398.716 408.404 405.322 412.153C403.052 415.094 401.41 419.163 398.759 421.73C397.013 423.42 394.692 424.456 392.908 426.08C387.05 431.411 372.344 463.201 369.058 471.982C367.051 477.344 365.605 482.938 364.406 488.531C363.149 494.397 363.77 500.368 363.022 506.286C362.837 507.754 362.691 507.965 361.509 508.875C360.826 509.492 360.039 510.305 359.234 510.746C358.262 511.278 357.432 511.092 356.424 510.855C352.907 510.03 349.022 509.688 345.609 508.569C344.391 508.17 343.704 507.658 343.277 506.406C341.839 502.194 345.129 497.947 345.488 493.815C345.872 489.392 344.747 485.093 345.654 480.636C347.339 472.355 351.721 466.108 354.735 458.458C356.072 455.063 356.949 451.445 358.123 447.985C361.032 439.407 364.441 431.37 369.207 423.663C372.348 418.585 375.437 413.44 378.891 408.567C381.021 405.564 383.683 402.901 385.444 399.667C385.529 399.51 385.61 399.352 385.693 399.194Z"/>
	<path fill="#FEFEFE" d="M610.42 618.368C614.276 621.133 623.239 633.285 626.884 637.764C621.561 640.941 617.021 645.26 611.839 648.662C600.169 656.322 587.468 662.887 575.058 669.255C570.329 671.681 565.431 674.669 560.402 676.364C552.358 679.074 541.213 680.887 532.77 681.018C528.23 682.227 522.941 682.151 518.25 682.436C518.167 674.8 518.359 667.15 518.455 659.514L518.84 659.466L519.481 659.379C531.823 657.799 543.763 654.391 555.64 650.847C559.271 649.764 563.104 648.899 566.624 647.502C574.395 644.416 590.436 635.277 597.104 630.313C601.881 626.757 606.165 622.522 610.42 618.368Z"/>
	<path fill="#FEFEFE" d="M514.497 341.644C514.688 341.632 514.879 341.618 515.069 341.607C523.724 341.141 531.716 342.872 540.168 344.496C576.039 351.389 599.15 364.97 626.427 388.995C623.6 392.173 620.098 394.84 616.855 397.587C613.647 400.363 610.558 403.285 607.436 406.158C601.995 401.313 597.244 396.108 591.292 391.79C580.74 384.134 568.747 379.765 556.916 374.623C552.239 372.591 547.665 370.046 542.723 368.714C534.315 366.448 524.472 365.414 515.8 364.904C513.908 357.672 514.891 349.135 514.497 341.644Z"/>
	<path fill="#FEFEFE" d="M670.893 514.224C674.494 514.1 678.124 514.345 681.724 514.493C681.729 525.302 681.352 534.581 676.976 544.637C677.219 545.415 677.456 546.202 677.602 547.005C680.019 560.299 661.507 589.097 654.69 600.626C652.332 604.614 650.331 609.12 647.599 612.848C645.869 615.208 636.855 624.965 634.538 625.304L633.549 624.542C628.751 618.22 623.524 612.137 619.119 605.537C629.93 595.868 636.693 584.106 642.338 570.956C644.252 566.497 645.605 561.721 648.138 557.566C652.319 550.71 650.865 542.826 652.86 535.31C653.437 534.825 653.763 534.622 654.508 534.401C654.717 534.338 654.931 534.291 655.143 534.237C656.017 528.066 655.507 521.325 655.536 515.066C660.638 514.612 665.777 514.462 670.893 514.224Z"/>
	<path fill="#FEFEFE" d="M636.32 395.885C639.567 399.297 642.886 402.59 645.785 406.317C655.752 419.131 663.85 435.296 670.618 450.054C672.419 453.98 673.858 457.906 674.972 462.079C675.666 464.678 676.128 468.83 677.311 471.135C677.668 471.831 679.071 472.893 679.67 473.491C681.722 482.353 681.621 492.983 681.324 502.071C675.118 501.761 669.1 501.397 662.878 501.652C660.424 501.907 657.937 501.986 655.473 502.132C655.399 490.674 654.071 478.677 649.656 468.023C648.629 467.509 647.645 466.971 646.967 466.014C644.654 462.75 643.169 458.299 641.434 454.661C639.919 451.485 638.044 448.502 636.443 445.37C633.915 440.424 631.657 435.205 628.683 430.514C625.221 425.056 620.805 420.347 616.439 415.617C620.411 412.344 624.362 408.788 627.879 405.032C629.695 403.093 631.245 400.962 633.259 399.215C634.442 398.189 635.365 397.122 636.32 395.885Z"/>
	<path fill="#FEFEFE" d="M501.808 375.188C502.876 375.174 502.516 375.126 503.447 375.287C510.756 376.551 518.205 376.825 525.565 377.731C542.313 379.794 558.811 385.419 572.955 394.713C593.829 408.428 610.756 422.104 624.168 443.535C625.646 445.897 626.736 448.478 628.158 450.868C629.441 453.024 631.296 454.796 632.553 456.965C635.622 462.259 641.503 477.699 642.791 483.995C647.795 508.462 644.979 540.887 635.133 563.864C632.076 570.997 627.507 576.795 623.504 583.346C621.383 586.818 619.684 590.688 617.358 594.011C615.006 597.369 611.62 599.87 608.955 602.958C604.208 608.458 600.415 614.273 594.708 618.924C591.154 621.82 586.603 623.101 582.639 625.351C566.775 634.357 550.668 642.436 532.685 646.235C527.021 647.431 521.104 648.029 515.37 648.921C511.566 648.945 507.802 649.426 503.992 649.414Q498.469 649.444 492.964 648.985Q487.46 648.525 482.018 647.58Q476.576 646.635 471.24 645.212Q465.903 643.788 460.713 641.898C455.106 639.862 448.312 635.602 443.497 632.097C436.59 627.069 430.387 620.446 423.928 614.812C414.951 606.98 405.53 600.462 397.672 591.337C393.438 586.42 389.132 579.653 386.238 573.835C381.401 564.111 381.137 552.693 376.61 543.011C377.051 539.86 377.219 536.807 377.27 533.627C376.263 532.14 374.879 530.358 374.641 528.533C374.131 524.627 375.426 520.134 375.447 516.139C375.464 512.707 375.055 509.262 375.182 505.832C375.322 502.06 376.125 498.244 376.567 494.493C376.994 490.866 377.137 487.145 377.741 483.546C379.575 472.607 384.47 461.747 389.728 452.076C392.29 447.366 394.707 442.453 398.009 438.207C418.289 412.121 434.323 396.262 465.89 384.365C477.902 379.838 489.071 376.8 501.808 375.188Z"/>
	<path d="M577.712 409.2C578.559 409.255 579.487 409.276 580.268 409.649C584.152 411.5 606.62 435.072 607.828 438.546C608.211 439.648 607.91 440.764 607.361 441.736C606.153 441.851 605.205 441.87 604.011 441.644C600.486 438.802 578.547 416.13 577.361 413.342C576.73 411.862 577.215 410.61 577.712 409.2Z"/>
	<path d="M400.806 565.795C405.982 567.299 410.676 574.934 414.187 579.079C420.149 586.118 426.636 591.709 433.707 597.56C437.055 600.331 441.246 603.154 443.997 606.483C445.044 607.75 444.712 608.921 444.591 610.422C443.966 610.45 443.376 610.475 442.754 610.403C433.104 609.294 411.958 587.098 406.292 579.392C403.454 575.532 400.053 570.786 400.806 565.795Z"/>
</svg>
